<?xml  version="1.0" encoding="UTF-8"?>
<!DOCTYPE svg PUBLIC "-//W3C//DTD SVG 1.0//EN" "http://www.w3.org/TR/2001/REC-SVG-20010904/DTD/svg10.dtd" >
<svg xmlns="http://www.w3.org/2000/svg" >
<metadata>
<version>1.0</version>
<id><![CDATA[Geometric 415 W01 Black Italic]]></id>
<vendor>Monotype Imaging Inc.</vendor>
<credits>
<name>Fonts.com WebFonts</name>
<URL>http://webfonts.fonts.com</URL>
<role>Home of the Web fonts</role>
</credits>
<license>
<URL>http://webfonts.fonts.com/Legal</URL>
</license>
<copyright><![CDATA[Copyright 1990-2003 Bitstream Inc. All rights reserved.]]></copyright>
<trademark></trademark>
<licensee>
<name></name>
</licensee>
</metadata>
<defs >
<font horiz-adv-x="1151" id="0e483a57-6066-4389-b7d8-503ffd84a1a0">
<font-face font-family="" panose-1="2 11 8 2 2 2 3 9 3 3" ascent="1972" descent="-483" units-per-em="2048" alphabetic="0">
</font-face>
<missing-glyph horiz-adv-x="590" />

<glyph unicode="&#xA;" horiz-adv-x="0" />
<glyph unicode="&#xD;" horiz-adv-x="1180" />
<glyph unicode=" " horiz-adv-x="590" />
<glyph unicode="!" horiz-adv-x="649" d="M174 426L256 1360L680 1497L352 485L174 426ZM47 145Q47 215 97 265T217 315Q289 315 338 267T387 145Q387 75 338 25T217 -25Q149 -25 98 26T47 145Z"  />
<glyph unicode="&quot;" horiz-adv-x="678" d="M406 1438H598V879H406V1438ZM80 1438H272V879H80V1438Z"  />
<glyph unicode="#" horiz-adv-x="1575" d="M709 848L621 604H872L958 848H709ZM709 1464H930L784 1049H1026L1174 1464H1395L1247 1049H1530L1456 848H1176L1092 606H1382L1311 406H1020L872 -10H651L799 406H555L406 -10H186L332 406H45L121 606H403L489 848H190L264 1049H561L709 1464Z"  />
<glyph unicode="$" horiz-adv-x="1180" d="M610 1218Q537 1214 496 1179T455 1085Q455 1043 481 1007T563 940L610 1218ZM559 250Q633 271 675 316T717 422Q717 464 693 503T618 580L559 250ZM517 2L467 -283H346L397 8Q324 13 246 34T76 96L127 365Q193 315 269 286T438 246L510 653L420 713Q286 802 231 881T176 1059Q176 1227 306 1338T639 1450H653L684 1634H805L772 1442Q837 1430 905 1405T1049 1337L950 1114Q892 1151 839 1172T729 1206L670 870L766 809Q888 730 944 645T1001 455Q1001 265 865 136T517 2Z"  />
<glyph unicode="%" horiz-adv-x="1593" d="M1030 319Q1030 254 1077 206T1188 158Q1252 158 1300 205T1348 319Q1348 386 1301 434T1188 483Q1124 483 1077 435T1030 319ZM819 322Q819 474 927 582T1188 690Q1341 690 1448 583T1556 322Q1556 169 1449 61T1188 -47Q1036 -47 928 61T819 322ZM1182 1497H1335L412 -47H256L1182 1497ZM244 1128Q244 1063 292 1015T403 967Q468 967 514 1014T561 1128Q561 1196 515 1244T403 1292Q339 1292 292 1244T244 1128ZM35 1128Q35 1281 143 1389T403 1497Q557 1497 664 1390T772 1128Q772 976 664 869T403 762Q251 762 143 869T35 1128Z"  />
<glyph unicode="&amp;" horiz-adv-x="1456" d="M692 987Q795 1028 841 1071T887 1167Q887 1217 851 1247T756 1278Q698 1278 661 1244T623 1157Q623 1118 639 1078T692 987ZM795 324L569 659Q453 606 401 551T348 426Q348 351 408 301T561 250Q616 250 675 268T795 324ZM963 78Q868 17 758 -15T532 -47Q309 -47 168 77T27 395Q27 553 126 669T430 866Q378 947 354 1013T330 1143Q330 1296 446 1396T745 1497Q929 1497 1040 1408T1151 1171Q1151 1053 1074 960T829 784L1020 500Q1058 540 1085 587T1126 684L1397 578Q1360 471 1310 391T1192 250L1360 0H1016L963 78Z"  />
<glyph unicode="&apos;" horiz-adv-x="352" d="M80 1438H272V879H80V1438Z"  />
<glyph unicode="(" horiz-adv-x="707" d="M461 -301H205Q145 -140 115 25T84 352Q84 659 193 941T510 1450H766Q551 1195 444 917T336 338Q336 173 366 16T461 -301Z"  />
<glyph unicode=")" horiz-adv-x="707" d="M207 1450H463Q523 1289 553 1124T584 797Q584 490 475 208T158 -301H-98Q117 -46 224 232T332 811Q332 976 301 1133T207 1450Z"  />
<glyph unicode="*" horiz-adv-x="1042" d="M563 991L406 666L223 797L485 1049L129 1098L197 1311L514 1141L453 1497H674L612 1141L930 1313L997 1098L641 1049L903 797L721 666L563 991Z"  />
<glyph unicode="+" horiz-adv-x="1706" d="M752 1221H954V711H1452V512H954V0H752V512H254V711H752V1221Z"  />
<glyph unicode="&#x2c;" horiz-adv-x="590" d="M-76 -309L139 252H422L174 -309H-76Z"  />
<glyph unicode="-" horiz-adv-x="702" d="M12 313L61 588H590L543 313H12Z"  />
<glyph unicode="." horiz-adv-x="590" d="M41 145Q41 215 91 265T211 315Q283 315 332 267T381 145Q381 75 332 25T211 -25Q142 -25 92 26T41 145Z"  />
<glyph unicode="/" horiz-adv-x="616" d="M670 1497L129 -190H-20L520 1497H670Z"  />
<glyph unicode="0" horiz-adv-x="1180" d="M395 518Q395 395 430 330T530 264Q580 264 623 307T700 434Q745 547 770 675T795 918Q795 1051 763 1118T666 1186Q562 1186 479 986T395 518ZM504 -47Q295 -47 176 110T57 545Q57 728 104 904T238 1217Q323 1352 439 1424T686 1497Q896 1497 1013 1339T1130 897Q1130 722 1086 552T963 248Q877 106 758 30T504 -47Z"  />
<glyph unicode="1" horiz-adv-x="1180" d="M647 0H328L537 1186H297L344 1450H903L647 0Z"  />
<glyph unicode="2" horiz-adv-x="1180" d="M47 131L573 690Q659 782 706 869T754 1024Q754 1099 705 1147T578 1196Q492 1196 438 1141T356 975L111 1176Q212 1344 333 1420T621 1497Q824 1497 954 1374T1085 1059Q1085 922 1004 777T606 285H1051L977 0H27L47 131Z"  />
<glyph unicode="3" horiz-adv-x="1180" d="M-16 174L160 412Q245 336 318 301T465 266Q563 266 623 321T684 465Q684 564 602 616T336 682L379 913Q423 907 454 904T506 901Q619 901 685 948T752 1075Q752 1138 705 1177T582 1217Q520 1217 456 1187T324 1098L135 1282Q233 1390 348 1443T596 1497Q809 1497 944 1388T1079 1112Q1079 999 1013 914T807 766Q911 711 964 624T1018 422Q1018 217 869 85T483 -47Q339 -47 219 6T-16 174Z"  />
<glyph unicode="4" horiz-adv-x="1180" d="M563 0L610 264H-6L25 551L807 1450H1133L967 516H1102L1059 264H924L877 0H563ZM678 516L801 1126L281 516H678Z"  />
<glyph unicode="5" horiz-adv-x="1180" d="M141 651L113 668L322 1450H1106L1010 1165H530L473 944Q477 944 484 945Q529 948 551 948Q778 948 924 812T1071 467Q1071 238 910 96T485 -47Q327 -47 193 -1T-49 135L102 401Q194 333 280 300T451 266Q574 266 656 329T739 481Q739 582 654 642T424 702Q363 702 295 690T141 651Z"  />
<glyph unicode="6" horiz-adv-x="1180" d="M369 446Q369 355 420 299T553 242Q646 242 707 306T768 469Q768 556 715 613T580 670Q490 670 430 605T369 446ZM1077 1450Q1001 1375 866 1245Q608 996 537 909Q572 920 605 925T670 930Q854 930 973 809T1092 496Q1092 262 941 108T557 -47Q325 -47 186 91T47 461Q47 664 180 889T637 1450H1077Z"  />
<glyph unicode="7" horiz-adv-x="1180" d="M565 0H211L784 1176H135L213 1450H1241L565 0Z"  />
<glyph unicode="8" horiz-adv-x="1180" d="M596 664Q488 632 431 570T373 426Q373 345 431 287T569 229Q650 229 705 287T760 428Q760 486 721 543T596 664ZM645 895Q739 923 790 976T842 1096Q842 1160 793 1203T670 1247Q591 1247 542 1205T492 1098Q492 1048 531 995T645 895ZM375 809Q289 878 249 951T209 1112Q209 1281 337 1390T670 1499Q869 1499 1001 1388T1133 1112Q1133 993 1063 896T877 756Q976 680 1024 593T1073 399Q1073 208 930 81T567 -47Q337 -47 193 77T49 399Q49 543 132 648T375 809Z"  />
<glyph unicode="9" horiz-adv-x="1180" d="M813 1006Q813 1097 762 1153T629 1210Q536 1210 475 1145T414 981Q414 894 467 838T602 782Q691 782 752 847T813 1006ZM96 0Q336 222 457 342T645 543Q610 532 577 527T512 522Q327 522 209 642T90 954Q90 1189 242 1344T627 1499Q857 1499 996 1360T1135 989Q1135 786 1002 561T545 0H96Z"  />
<glyph unicode=":" horiz-adv-x="637" d="M164 758Q164 828 213 878T332 928Q404 928 454 879T504 758Q504 688 454 638T332 588Q263 588 214 638T164 758ZM55 145Q55 216 104 265T223 315Q296 315 345 266T395 145Q395 75 345 25T223 -25Q155 -25 105 26T55 145Z"  />
<glyph unicode=";" horiz-adv-x="637" d="M164 758Q164 828 213 878T332 928Q404 928 454 879T504 758Q504 688 454 638T332 588Q263 588 214 638T164 758ZM-76 -309L139 252H422L174 -309H-76Z"  />
<glyph unicode="&lt;" horiz-adv-x="1706" d="M1442 1194V975L549 610L1442 246V27L264 512V711L1442 1194Z"  />
<glyph unicode="=" horiz-adv-x="1706" d="M254 496H1452V297H254V496ZM254 926H1452V727H254V926Z"  />
<glyph unicode="&gt;" horiz-adv-x="1706" d="M264 1194L1442 711V512L264 27V246L1159 610L264 975V1194Z"  />
<glyph unicode="?" horiz-adv-x="1010" d="M162 430L242 883Q308 869 340 865T397 860Q505 860 568 910T631 1044Q631 1116 570 1164T416 1212Q363 1212 307 1195T182 1141L225 1448Q301 1474 368 1486T498 1499Q701 1499 828 1377T956 1067Q956 875 832 749T514 623Q495 623 485 623T467 624L442 485L162 430ZM100 145Q100 215 150 265T270 315Q343 315 391 267T440 145Q440 75 391 25T270 -25Q202 -25 151 26T100 145Z"  />
<glyph unicode="@" horiz-adv-x="2048" d="M1167 272Q1112 188 1040 149T870 109Q712 109 630 195T547 449Q547 688 686 850T1030 1012Q1110 1012 1169 979T1266 881L1319 979H1497L1350 381Q1347 370 1345 359T1343 340Q1343 305 1367 288T1438 270Q1477 270 1519 290T1599 346Q1685 426 1729 533T1774 768Q1774 1008 1589 1162T1110 1317Q969 1317 848 1283T627 1182Q457 1068 366 897T274 522Q274 215 481 32T1034 -152Q1196 -152 1350 -103T1638 39L1720 -78Q1567 -193 1396 -251T1038 -309Q846 -309 685 -261T399 -117Q244 4 167 162T90 520Q90 687 142 838T297 1114Q445 1295 653 1388T1116 1481Q1285 1481 1433 1436T1692 1307Q1827 1202 1893 1068T1960 764Q1960 599 1895 460T1706 221Q1636 165 1554 136T1382 106Q1276 106 1223 148T1167 272ZM1217 700Q1204 781 1160 823T1042 866Q928 866 844 742T760 444Q760 352 800 304T918 256Q1001 256 1069 319T1163 483L1217 700Z"  />
<glyph unicode="A" horiz-adv-x="1356" d="M846 451L729 846L471 451H846ZM184 0H-154L846 1497H879L1325 0H975L915 213H319L184 0Z"  />
<glyph unicode="B" horiz-adv-x="1247" d="M520 260Q648 260 714 313T780 471Q780 552 732 595T592 639H463L393 260H520ZM559 1190L504 877H633Q736 877 795 925T854 1055Q854 1124 803 1157T639 1190H559ZM33 0L289 1450H694Q916 1450 1036 1356T1157 1090Q1157 967 1093 880T897 739Q998 687 1049 611T1100 434Q1100 325 1048 231T905 82Q832 38 743 19T467 0H442H33Z"  />
<glyph unicode="C" horiz-adv-x="1309" d="M1182 117Q1088 37 976 -5T745 -47Q448 -47 260 149T72 655Q72 834 132 992T307 1272Q411 1382 550 1440T846 1499Q975 1499 1092 1456T1331 1321L1192 1026Q1110 1108 1025 1149T850 1190Q672 1190 547 1040T422 674Q422 498 519 386T768 274Q842 274 917 311T1071 424L1182 117Z"  />
<glyph unicode="D" horiz-adv-x="1489" d="M33 0L289 1450H590Q792 1450 926 1419T1157 1319Q1287 1227 1355 1091T1423 786Q1423 604 1347 450T1126 186Q998 89 828 45T403 0H33ZM426 307H530Q779 307 927 435T1075 772Q1075 955 959 1049T614 1143H573L426 307Z"  />
<glyph unicode="E" horiz-adv-x="1165" d="M35 0L291 1450H1171L1120 1157H571L524 887H1047L993 594H471L420 295H989L938 0H35Z"  />
<glyph unicode="F" horiz-adv-x="1128" d="M35 0L291 1450H1192L1139 1157H578L530 887H1047L993 594H479L375 0H35Z"  />
<glyph unicode="G" horiz-adv-x="1507" d="M1268 43Q1147 -2 1031 -24T799 -47Q462 -47 267 142T72 655Q72 833 133 992T309 1274Q415 1386 562 1443T891 1501Q1041 1501 1186 1458T1470 1329L1319 1036Q1214 1115 1107 1155T893 1196Q687 1196 555 1051T422 680Q422 490 526 380T809 270Q849 270 889 273T969 283L1004 477H743L793 762H1395L1268 43Z"  />
<glyph unicode="H" horiz-adv-x="1565" d="M33 0L289 1450H629L535 915H1096L1190 1450H1530L1276 0H936L1044 618H481L373 0H33Z"  />
<glyph unicode="I" horiz-adv-x="682" d="M39 0L295 1450H639L383 0H39Z"  />
<glyph unicode="J" horiz-adv-x="854" d="M303 537L465 1450H809L641 512Q585 195 477 85T152 -25Q74 -25 4 -4T-143 63L-59 342Q-1 305 45 287T127 268Q200 268 237 321T303 537Z"  />
<glyph unicode="K" horiz-adv-x="1384" d="M33 0L289 1450H629L526 864L1059 1450H1460L844 786L1319 0H913L502 729L373 0H33Z"  />
<glyph unicode="L" horiz-adv-x="1071" d="M33 0L289 1450H637L434 295H999L946 0H33Z"  />
<glyph unicode="M" horiz-adv-x="1767" d="M-57 0L506 1497H547L868 608L1415 1497H1458L1638 0H1300L1229 655L811 -47H768L506 682L254 0H-57Z"  />
<glyph unicode="N" horiz-adv-x="1587" d="M35 0L295 1497H338L1083 647L1223 1450H1552L1286 -47H1243L500 805L358 0H35Z"  />
<glyph unicode="O" horiz-adv-x="1602" d="M68 659Q68 836 129 992T307 1272Q412 1383 551 1441T852 1499Q1154 1499 1343 1305T1532 801Q1532 627 1472 470T1298 190Q1190 74 1048 14T743 -47Q443 -47 256 149T68 659ZM825 1180Q662 1180 541 1032T420 676Q420 497 517 387T772 276Q937 276 1058 424T1180 780Q1180 957 1081 1068T825 1180Z"  />
<glyph unicode="P" horiz-adv-x="1210" d="M512 782Q521 782 539 781Q582 778 594 778Q712 778 783 837T854 991Q854 1076 795 1121T627 1167Q609 1167 600 1167T582 1165L512 782ZM467 520L375 0H35L291 1450H598Q878 1450 1034 1331T1190 997Q1190 779 1027 650T582 520H467Z"  />
<glyph unicode="Q" horiz-adv-x="1602" d="M136 -131Q151 -61 172 4T219 129Q247 126 271 125T317 123L319 139Q198 188 131 314T63 623Q63 1006 286 1252T852 1499Q1153 1499 1342 1306T1532 803Q1532 452 1327 218T807 -19V-45Q865 -58 976 -88Q1204 -152 1323 -152Q1330 -152 1344 -151T1366 -150L1274 -456Q1166 -451 1051 -419T731 -295Q715 -288 680 -272Q359 -129 195 -129Q170 -129 158 -129T136 -131ZM825 1180Q661 1180 541 1033T420 676Q420 496 517 385T772 274Q937 274 1058 423T1180 780Q1180 957 1081 1068T825 1180Z"  />
<glyph unicode="R" horiz-adv-x="1280" d="M506 766Q524 765 544 765T594 764Q724 764 798 825T872 991Q872 1087 808 1136T618 1186H582L506 766ZM473 569L371 0H35L291 1450H639Q903 1450 1054 1328T1206 995Q1206 836 1108 729T834 592L1198 0H811L485 569H473Z"  />
<glyph unicode="S" horiz-adv-x="1118" d="M49 55L111 397Q200 325 286 289T455 252Q544 252 598 298T653 418Q653 472 623 515T500 621L401 686Q265 777 208 866T150 1069Q150 1256 280 1377T616 1499Q718 1499 818 1470T1024 1378L915 1110Q825 1169 751 1196T604 1223Q544 1223 504 1187T463 1098Q463 1058 485 1024T555 958L696 864Q844 765 910 665T977 442Q977 225 835 89T461 -47Q360 -47 258 -22T49 55Z"  />
<glyph unicode="T" horiz-adv-x="1255" d="M311 0L516 1153H41L94 1450H1372L1321 1153H856L651 0H311Z"  />
<glyph unicode="U" horiz-adv-x="1522" d="M141 692L274 1450H614L477 672Q469 626 465 586T461 520Q461 393 526 325T713 256Q862 256 942 354T1065 696L1198 1450H1499L1356 631Q1292 272 1137 112T702 -49Q424 -49 271 87T117 469Q117 514 123 570T141 692Z"  />
<glyph unicode="V" horiz-adv-x="1284" d="M514 -47H471L51 1450H397L612 662L1081 1450H1425L514 -47Z"  />
<glyph unicode="W" horiz-adv-x="1810" d="M500 -47H457L59 1450H406L588 715L981 1497H1024L1204 727L1579 1450H1923L1112 -47H1069L883 709L500 -47Z"  />
<glyph unicode="X" horiz-adv-x="1456" d="M291 0H-100L535 743L117 1450H504L760 1006L1143 1450H1530L915 741L1356 0H969L690 479L291 0Z"  />
<glyph unicode="Y" horiz-adv-x="1262" d="M690 0H350L461 635L4 1450H373L670 899L1067 1450H1415L795 600L690 0Z"  />
<glyph unicode="Z" horiz-adv-x="1360" d="M-70 0L829 1161H104L166 1450H1425L582 307H1257L1208 0H-70Z"  />
<glyph unicode="[" horiz-adv-x="707" d="M186 -195H477L459 -301H-78L231 1450H768L750 1343H459L186 -195Z"  />
<glyph unicode="\" horiz-adv-x="616" d="M358 -190L115 1497H264L508 -190H358Z"  />
<glyph unicode="]" horiz-adv-x="707" d="M461 1343H170L188 1450H725L416 -301H-121L-102 -195H188L461 1343Z"  />
<glyph unicode="^" horiz-adv-x="2048" d="M897 1460H1149L1630 899H1395L1024 1270L651 899H416L897 1460Z"  />
<glyph unicode="_" horiz-adv-x="1024" d="M0 -279H1024V-483H0V-279Z"  />
<glyph unicode="`" horiz-adv-x="1024" d="M711 1053H594L293 1401H506L711 1053Z"  />
<glyph unicode="a" horiz-adv-x="1130" d="M686 618Q662 667 628 691T547 715Q451 715 384 616T317 369Q317 291 355 244T457 197Q530 197 582 259T655 436L686 618ZM1049 901L891 0H578L594 94Q522 27 457 -4T324 -35Q184 -35 98 73T12 360Q12 607 139 770T457 934Q532 934 594 905T721 809L735 901H1049Z"  />
<glyph unicode="b" horiz-adv-x="1130" d="M362 365Q362 292 402 245T504 197Q592 197 653 294T715 535Q715 613 679 659T580 705Q488 705 425 608T362 365ZM-16 0L244 1470H557L440 807Q508 873 573 904T709 936Q848 936 934 828T1020 541Q1020 293 896 125T594 -43Q515 -43 444 -9T313 92L295 0H-16Z"  />
<glyph unicode="c" horiz-adv-x="973" d="M852 575Q786 631 723 658T598 686Q478 686 398 615T317 442Q317 344 377 283T530 221Q590 221 647 239T772 299L821 43Q727 -2 646 -23T485 -45Q274 -45 142 81T10 408Q10 636 168 790T565 944Q660 944 749 918T922 838L852 575Z"  />
<glyph unicode="d" horiz-adv-x="1133" d="M578 0L594 94Q525 28 459 -3T324 -35Q184 -35 98 73T12 360Q12 607 139 770T457 934Q534 934 598 904T721 809L836 1470H1149L891 0H578ZM686 618Q662 667 628 691T547 715Q451 715 384 616T317 369Q317 291 356 244T459 197Q532 197 583 259T655 436L686 618Z"  />
<glyph unicode="e" horiz-adv-x="1059" d="M330 537H711Q712 546 712 555T713 573Q713 642 668 686T551 731Q477 731 416 678T330 537ZM829 41Q743 -1 656 -22T483 -43Q274 -43 144 82T14 408Q14 630 169 786T547 942Q734 942 845 831T956 530Q956 505 955 485T952 444L934 412H305V397Q305 297 365 243T537 188Q605 188 687 210T868 279L829 41Z"  />
<glyph unicode="f" horiz-adv-x="725" d="M37 0L156 672H-20L18 901H195L225 1069Q262 1277 356 1381T600 1485Q650 1485 704 1474T821 1440L774 1163Q741 1175 717 1180T674 1186Q615 1186 582 1152T535 1038L512 901H727L686 672H471L352 0H37Z"  />
<glyph unicode="g" horiz-adv-x="1130" d="M63 -125Q151 -170 220 -190T352 -211Q459 -211 515 -139T594 104Q523 41 457 12T322 -18Q182 -18 97 86T12 362Q12 607 139 770T457 934Q532 934 594 905T721 809L735 901H1049L901 55Q854 -211 738 -324T406 -438Q306 -438 209 -416T20 -348L63 -125ZM686 618Q662 667 628 691T547 715Q453 715 385 618T317 379Q317 295 355 245T457 195Q530 195 582 258T655 436L686 618Z"  />
<glyph unicode="h" horiz-adv-x="1133" d="M-18 0L240 1470H553L432 776Q508 854 583 891T741 928Q863 928 936 857T1010 670Q1010 655 1008 638T1004 605L897 0H584L676 512Q676 514 677 518Q684 565 684 590Q684 631 661 654T596 678Q519 678 455 613T373 442L295 0H-18Z"  />
<glyph unicode="i" horiz-adv-x="541" d="M178 1243Q178 1312 226 1360T344 1409Q414 1409 462 1361T510 1243Q510 1174 462 1126T344 1077Q276 1077 227 1126T178 1243ZM-16 0L141 901H461L301 0H-16Z"  />
<glyph unicode="j" horiz-adv-x="543" d="M180 1243Q180 1313 227 1361T344 1409Q414 1409 462 1361T510 1243Q510 1174 462 1126T344 1077Q276 1077 228 1126T180 1243ZM276 -147Q254 -269 233 -323T176 -418L-188 -436Q-130 -394 -97 -329T-41 -139L143 901H461L276 -147Z"  />
<glyph unicode="k" horiz-adv-x="1051" d="M-18 0L242 1470H555L399 584L731 901H1096L668 508L991 0H647L383 489L295 0H-18Z"  />
<glyph unicode="l" horiz-adv-x="541" d="M-16 0L242 1470H561L301 0H-16Z"  />
<glyph unicode="m" horiz-adv-x="1718" d="M-18 0L141 901H451L428 766Q498 847 575 887T737 928Q837 928 904 879T995 739Q1071 835 1153 881T1329 928Q1450 928 1522 857T1595 668Q1595 652 1594 637T1589 604L1481 0H1169L1260 512Q1264 532 1266 552T1268 590Q1268 631 1246 654T1184 678Q1108 678 1048 614T969 442L889 0H575L666 513Q671 539 673 558T676 590Q676 630 653 654T590 678Q514 678 454 614T375 442L295 0H-18Z"  />
<glyph unicode="n" horiz-adv-x="1133" d="M-18 0L141 901H449L426 766Q499 848 576 888T741 928Q863 928 936 857T1010 670Q1010 655 1008 638T1004 605L897 0H584L676 512Q676 514 677 518Q684 565 684 590Q684 631 661 654T596 678Q519 678 457 614T375 442L295 0H-18Z"  />
<glyph unicode="o" horiz-adv-x="1118" d="M8 410Q8 635 163 789T549 944Q753 944 882 820T1012 498Q1012 271 859 115T483 -41Q270 -41 139 83T8 410ZM535 707Q452 707 391 620T330 410Q330 314 375 255T489 195Q572 195 631 281T690 494Q690 589 647 648T535 707Z"  />
<glyph unicode="p" horiz-adv-x="1126" d="M346 283Q393 239 433 218T508 197Q594 197 654 294T715 537Q715 613 679 659T584 705Q543 705 500 682T406 612L346 283ZM-94 -436L141 901H455L438 807Q510 874 575 905T709 936Q847 936 932 828T1018 541Q1018 296 894 127T596 -43Q519 -43 447 -9T313 92L219 -436H-94Z"  />
<glyph unicode="q" horiz-adv-x="1130" d="M686 618Q662 667 628 691T547 715Q451 715 384 616T317 369Q317 291 355 244T457 197Q530 197 582 259T655 436L686 618ZM1049 901L813 -436H500L594 94Q522 27 457 -4T324 -35Q183 -35 97 73T10 360Q10 607 138 770T457 934Q533 934 597 904T721 809L735 901H1049Z"  />
<glyph unicode="r" horiz-adv-x="772" d="M-18 0L141 901H426L395 725Q452 828 514 878T651 928Q673 928 695 925T741 913L684 596Q656 603 631 606T582 610Q488 610 436 549T358 348L299 0H-18Z"  />
<glyph unicode="s" horiz-adv-x="854" d="M37 262Q125 211 199 186T332 160Q379 160 409 182T440 238Q440 266 419 287T324 342L264 371Q161 420 109 490T57 651Q57 777 159 859T424 942Q518 942 607 915T786 829L702 647Q628 693 563 717T446 741Q397 741 367 720T336 664Q336 633 362 610T473 551L528 528Q620 489 671 418T723 260Q723 126 618 43T340 -41Q237 -41 141 -14T-45 70L37 262Z"  />
<glyph unicode="t" horiz-adv-x="739" d="M588 23Q521 0 462 -11T348 -23Q220 -23 148 38T76 209Q76 228 79 257T92 334L152 672H-20L18 901H193L240 1178L565 1241L506 901H723L682 672H465L410 360Q407 348 407 335T406 301Q406 257 425 235T485 213Q508 213 540 220T627 246L588 23Z"  />
<glyph unicode="u" horiz-adv-x="1133" d="M1053 901L893 0H584L608 135Q536 53 458 13T293 -27Q171 -27 98 44T25 231Q25 248 26 264T31 297L137 901H449L358 389Q358 387 358 384Q350 336 350 311Q350 270 373 247T438 223Q516 223 578 287T659 457L739 901H1053Z"  />
<glyph unicode="v" horiz-adv-x="901" d="M293 -51L-35 901H283L406 522L647 901H938L319 -51H293Z"  />
<glyph unicode="w" horiz-adv-x="1354" d="M276 -51L-27 901H293L410 483L680 952H707L844 483L1081 901H1376L805 -51H778L608 410L301 -51H276Z"  />
<glyph unicode="x" horiz-adv-x="958" d="M-123 0L258 440L-35 901H324L467 649L666 901H971L608 463L913 0H555L401 252L197 0H-123Z"  />
<glyph unicode="y" horiz-adv-x="915" d="M-6 -436L229 45L-35 901H285L424 416L639 901H920L276 -436H-6Z"  />
<glyph unicode="z" horiz-adv-x="920" d="M-98 0L379 670H23L90 901H895L426 231H813L750 0H-98Z"  />
<glyph unicode="{" horiz-adv-x="1024" d="M883 1477V1268Q874 1268 858 1269T836 1270Q735 1270 700 1232T664 1069V829Q664 681 619 619T457 530Q574 503 619 442T664 233V-8Q664 -131 699 -169T836 -207Q842 -207 858 -206T883 -205V-414Q869 -414 844 -415T807 -416Q707 -416 640 -404T526 -367Q469 -333 446 -276T422 -76V176Q422 313 371 370T199 428Q193 428 179 427T158 426V635Q165 635 179 634T199 633Q319 633 370 691T422 887V1137Q422 1280 445 1338T526 1430Q573 1455 640 1467T807 1479Q819 1479 844 1478T883 1477Z"  />
<glyph unicode="|" horiz-adv-x="1024" d="M410 1565H616V-483H410V1565Z"  />
<glyph unicode="}" horiz-adv-x="1024" d="M143 1477H211Q321 1477 388 1465T500 1427Q557 1395 580 1336T604 1137V885Q604 748 655 691T827 633Q833 633 847 634T868 635V426H831Q706 426 655 370T604 176V-76Q604 -219 581 -277T500 -367Q453 -392 386 -404T219 -416Q207 -416 182 -415T143 -414V-205Q152 -205 168 -206T190 -207Q291 -207 326 -169T362 -8V231Q362 381 407 442T569 530Q452 557 407 619T362 829V1071Q362 1193 327 1231T190 1270Q184 1270 168 1269T143 1268V1477Z"  />
<glyph unicode="~" horiz-adv-x="1706" d="M1530 803V582Q1426 511 1334 478T1151 444Q1105 444 1059 452T967 475Q943 483 896 500Q677 575 563 575Q478 575 386 538T178 418V639Q285 711 382 746T565 782Q682 782 856 724L860 723Q878 717 915 704Q1070 649 1155 649Q1240 649 1330 686T1530 803Z"  />
<glyph unicode="&#xA0;" horiz-adv-x="1180" />
<glyph unicode="&#xA1;" horiz-adv-x="649" d="M637 1329Q637 1259 588 1209T469 1159Q396 1159 347 1208T297 1329Q297 1399 347 1448T469 1497Q537 1497 587 1447T637 1329ZM512 1049L430 115L6 -25L332 989L512 1049Z"  />
<glyph unicode="&#xA2;" horiz-adv-x="1180" d="M659 727Q562 717 496 646T430 485Q430 423 453 377T522 301L659 727ZM551 0L471 -252H342L432 23Q284 73 204 185T123 453Q123 675 278 831T653 987Q685 987 705 987T743 985L823 1225H950L864 961Q910 947 952 928T1034 883L965 618Q905 665 864 687T786 718L637 264H657Q710 264 765 283T885 342L934 88Q839 41 758 20T598 -2Q579 -2 569 -2T551 0Z"  />
<glyph unicode="&#xA3;" horiz-adv-x="1180" d="M109 287Q193 316 243 400T293 596V659H121L152 831H293V956Q293 1216 413 1356T754 1497Q864 1497 955 1451T1133 1307L961 1126Q915 1183 871 1210T780 1237Q688 1237 644 1171T600 967V831H885L854 659H600V600Q600 504 579 431T514 297L575 262Q609 244 646 233T711 221Q753 221 787 249T852 338L1083 227Q1031 90 947 22T743 -47Q681 -47 604 -20T449 57L377 102Q321 43 254 6T109 -47V287Z"  />
<glyph unicode="&#xA4;" horiz-adv-x="1204" d="M1260 1350L1120 1055Q1074 1121 1012 1153T864 1186Q762 1186 680 1129T545 963H995L946 829H502Q488 783 481 734T471 637H874L825 504H479Q490 381 547 324T715 266Q768 266 844 304T999 412L1110 104Q1019 39 898 -4T678 -47Q426 -47 291 91T137 504H-16L33 637H137Q140 682 147 734T164 829H29L78 963H195Q273 1223 452 1360T897 1497Q996 1497 1087 1460T1260 1350Z"  />
<glyph unicode="&#xA5;" horiz-adv-x="1356" d="M1448 1450L1094 963H1350L1327 829H993L854 635H1292L1270 502H811L723 0H412L498 502H23L47 635H522L414 829H80L104 963H338L63 1450H406L713 881L1120 1450H1448Z"  />
<glyph unicode="&#xA6;" horiz-adv-x="1024" d="M410 408H616V-350H410V408ZM410 1432H616V674H410V1432Z"  />
<glyph unicode="&#xA7;" horiz-adv-x="1042" d="M348 809Q348 782 368 740T457 592Q468 574 488 542Q557 430 610 430Q642 430 663 450T684 502Q684 527 664 570T578 720Q573 728 565 741Q479 883 422 883Q391 883 370 862T348 809ZM45 -18L207 102Q253 41 293 12T371 -18Q418 -18 443 7T469 80Q469 119 447 169T342 346Q326 371 295 418Q121 684 121 797Q121 910 189 974T387 1049Q364 1102 353 1145T342 1227Q342 1349 428 1423T657 1497Q757 1497 831 1453T971 1311L803 1190Q745 1260 716 1279T651 1298Q609 1298 585 1275T561 1210Q561 1158 653 1027Q694 968 717 934Q833 754 869 670T905 518Q905 400 839 333T655 266Q640 266 633 266T619 268Q653 215 669 167T686 72Q686 -63 602 -142T373 -221Q269 -221 185 -169T45 -18Z"  />
<glyph unicode="&#xA8;" horiz-adv-x="1024" d="M297 1217Q297 1270 334 1308T424 1346Q479 1346 516 1309T553 1217Q553 1164 515 1127T424 1090Q373 1090 335 1128T297 1217ZM635 1217Q635 1270 673 1308T764 1346Q819 1346 856 1309T893 1217Q893 1164 855 1127T764 1090Q713 1090 674 1128T635 1217Z"  />
<glyph unicode="&#xA9;" horiz-adv-x="1706" d="M1212 897H1024Q1016 967 971 1005T852 1044Q761 1044 709 963T657 735Q657 588 709 511T860 434Q933 434 977 476T1030 595L1223 596Q1215 457 1114 373T854 289Q668 289 561 407T453 729Q453 935 562 1057T856 1180Q1008 1180 1106 1102T1212 897ZM854 1356Q726 1356 615 1310T416 1176Q327 1086 280 973T233 735Q233 610 280 498T416 297Q504 209 617 162T854 115Q978 115 1091 162T1296 299Q1384 385 1429 496T1475 735Q1475 861 1429 973T1294 1174Q1205 1263 1093 1309T854 1356ZM852 1479Q1004 1479 1139 1423T1382 1260Q1487 1155 1542 1020T1597 733Q1597 581 1543 449T1382 213Q1271 105 1134 48T852 -10Q705 -10 572 46T330 211Q223 317 167 451T111 733Q111 882 167 1017T330 1262Q435 1368 568 1423T852 1479Z"  />
<glyph unicode="&#xAA;" horiz-adv-x="848" d="M514 1253Q496 1288 471 1304T410 1321Q338 1321 288 1252T238 1079Q238 1025 266 992T342 958Q398 958 437 1002T492 1126L514 1253ZM786 1452L668 821H434L446 887Q392 840 343 819T244 797Q139 797 75 872T10 1073Q10 1247 104 1361T342 1475Q399 1475 445 1455T541 1389L551 1452H786Z"  />
<glyph unicode="&#xAB;" horiz-adv-x="1020" d="M856 137H614L418 451L692 764H934L668 451L856 137ZM461 137H221L23 451L297 764H539L272 451L461 137Z"  />
<glyph unicode="&#xAC;" horiz-adv-x="1706" d="M254 864H1452V362H1253V668H254V864Z"  />
<glyph unicode="&#xAD;" horiz-adv-x="702" d="M12 313L61 588H590L543 313H12Z"  />
<glyph unicode="&#xAE;" horiz-adv-x="1706" d="M745 1034V795H844Q932 795 973 823T1014 911Q1014 974 970 1004T834 1034H745ZM545 1161H868Q1044 1161 1132 1102T1221 924Q1221 842 1173 784T1040 705L1225 336H1001L844 674H745V336H545V1161ZM854 1356Q727 1356 618 1312T422 1180Q331 1089 282 974T233 735Q233 611 279 500T412 301Q501 210 615 162T852 113Q972 113 1085 160T1292 295Q1379 379 1427 491T1475 723Q1475 856 1431 968T1298 1169Q1208 1262 1096 1309T854 1356ZM852 1479Q1006 1479 1142 1422T1386 1255Q1489 1151 1543 1017T1597 733Q1597 581 1541 446T1378 207Q1271 102 1135 46T852 -10Q703 -10 567 48T324 215Q220 320 166 453T111 733Q111 835 138 931T219 1120Q320 1290 486 1384T852 1479Z"  />
<glyph unicode="&#xAF;" horiz-adv-x="1024" d="M303 1143L334 1290H887L856 1143H303Z"  />
<glyph unicode="&#xB0;" horiz-adv-x="674" d="M338 1335Q265 1335 214 1284T162 1161Q162 1087 213 1036T338 985Q410 985 461 1037T512 1161Q512 1233 461 1284T338 1335ZM338 1464Q464 1464 552 1375T641 1159Q641 1034 552 945T336 856Q210 856 123 944T35 1159Q35 1286 123 1375T338 1464Z"  />
<glyph unicode="&#xB1;" horiz-adv-x="1706" d="M254 197H1452V-2H254V197ZM752 1223H954V897H1452V698H954V373H752V698H254V897H752V1223Z"  />
<glyph unicode="&#xB2;" horiz-adv-x="778" d="M31 657L379 993Q436 1050 467 1102T498 1194Q498 1239 466 1267T381 1296Q324 1296 288 1264T236 1165L74 1284Q141 1386 221 1432T410 1479Q544 1479 630 1404T717 1214Q717 1133 663 1046T399 750H694L645 580H18L31 657Z"  />
<glyph unicode="&#xB3;" horiz-adv-x="778" d="M-10 684L104 827Q159 782 208 761T307 739Q372 739 411 771T451 858Q451 917 397 948T221 989L250 1128Q276 1124 297 1122T334 1120Q408 1120 452 1148T496 1225Q496 1263 465 1286T383 1309Q343 1309 302 1292T213 1239L90 1350Q155 1414 230 1446T393 1479Q533 1479 623 1413T713 1247Q713 1179 669 1128T532 1038Q602 1006 637 955T672 834Q672 710 574 631T319 551Q225 551 146 583T-10 684Z"  />
<glyph unicode="&#xB4;" horiz-adv-x="1024" d="M551 1053H420L639 1401H854L551 1053Z"  />
<glyph unicode="&#xB5;" horiz-adv-x="1249" d="M205 1092H494L418 657Q403 577 395 506T387 389Q387 296 429 251T557 205Q657 205 712 287T805 578L895 1092H1184L991 0H723L741 117Q699 39 648 3T526 -33Q459 -33 407 -4T313 88L223 -438H-63L205 1092Z"  />
<glyph unicode="&#xB6;" horiz-adv-x="1024" d="M983 1479V1368H870V0H719V1368H561V0H408V784Q241 790 141 885T41 1130Q41 1288 148 1383T432 1479H983Z"  />
<glyph unicode="&#xB7;" horiz-adv-x="590" d="M129 725Q129 795 179 845T299 895Q371 895 420 846T469 725Q469 655 420 605T299 555Q231 555 180 606T129 725Z"  />
<glyph unicode="&#xB8;" horiz-adv-x="1024" d="M98 -426L141 -315Q208 -338 265 -350T365 -362Q419 -362 451 -338T483 -272Q483 -231 448 -214T322 -197H283L352 0H442L408 -94H416Q527 -94 585 -137T643 -264Q643 -365 577 -422T393 -479Q338 -479 273 -468T98 -426Z"  />
<glyph unicode="&#xB9;" horiz-adv-x="778" d="M426 580H215L354 1290H195L227 1450H596L426 580Z"  />
<glyph unicode="&#xBA;" horiz-adv-x="840" d="M6 1108Q6 1266 123 1374T412 1483Q565 1483 662 1396T760 1169Q760 1011 645 902T362 793Q203 793 105 880T6 1108ZM401 1317Q340 1317 294 1256T248 1108Q248 1041 281 1000T367 958Q429 958 473 1018T518 1167Q518 1235 486 1276T401 1317Z"  />
<glyph unicode="&#xBB;" horiz-adv-x="1020" d="M68 764H307L506 451L231 137H-10L256 451L68 764ZM461 764H702L901 451L627 137H385L651 451L461 764Z"  />
<glyph unicode="&#xBC;" horiz-adv-x="1829" d="M1440 0L1470 147H1081L1102 309L1593 811H1798L1694 289H1780L1753 147H1667L1638 0H1440ZM1513 289L1589 631L1262 289H1513ZM401 -47L1272 1497H1425L555 -47H401ZM406 639H205L336 1303H186L215 1450H567L406 639Z"  />
<glyph unicode="&#xBD;" horiz-adv-x="1829" d="M1114 74L1446 387Q1500 439 1530 488T1561 573Q1561 615 1530 642T1450 670Q1395 670 1361 640T1311 547L1155 657Q1219 752 1295 795T1477 838Q1604 838 1686 769T1769 594Q1769 516 1717 434T1466 160H1747L1702 0H1102L1114 74ZM401 -47L1272 1497H1425L555 -47H401ZM406 639H205L336 1303H186L215 1450H567L406 639Z"  />
<glyph unicode="&#xBE;" horiz-adv-x="1829" d="M1440 0L1470 147H1081L1102 309L1593 811H1798L1694 289H1780L1753 147H1667L1638 0H1440ZM1513 289L1589 631L1262 289H1513ZM401 -47L1272 1497H1425L555 -47H401ZM-10 737L100 870Q154 828 200 808T293 788Q354 788 392 819T430 899Q430 955 379 983T211 1020L240 1151Q248 1150 264 1148Q305 1143 319 1143Q390 1143 431 1170T473 1241Q473 1277 444 1299T367 1321Q329 1321 289 1305T205 1253L86 1358Q147 1417 219 1447T375 1477Q509 1477 594 1416T680 1262Q680 1198 638 1150T508 1067Q574 1036 607 988T641 874Q641 760 547 686T305 612Q214 612 139 642T-10 737Z"  />
<glyph unicode="&#xBF;" horiz-adv-x="1010" d="M866 1042L786 592Q734 603 697 607T631 612Q524 612 461 562T397 428Q397 357 458 309T612 260Q664 260 721 278T848 334L803 27Q727 1 660 -12T530 -25Q327 -25 200 96T72 406Q72 597 197 723T516 850Q535 850 544 850T563 848L588 989L866 1042ZM928 1329Q928 1259 879 1209T760 1159Q687 1159 638 1208T588 1329Q588 1399 638 1448T760 1497Q828 1497 878 1447T928 1329Z"  />
<glyph unicode="&#xC0;" horiz-adv-x="1356" d="M846 451L729 846L471 451H846ZM184 0H-154L846 1497H879L1325 0H975L915 213H319L184 0ZM1026 1608H909L608 1956H821L1026 1608Z"  />
<glyph unicode="&#xC1;" horiz-adv-x="1356" d="M846 451L729 846L471 451H846ZM184 0H-154L846 1497H879L1325 0H975L915 213H319L184 0ZM866 1608H735L954 1956H1169L866 1608Z"  />
<glyph unicode="&#xC2;" horiz-adv-x="1356" d="M846 451L729 846L471 451H846ZM184 0H-154L846 1497H879L1325 0H975L915 213H319L184 0ZM1167 1608H1048L919 1808L702 1608H571L825 1956H1038L1167 1608Z"  />
<glyph unicode="&#xC3;" horiz-adv-x="1356" d="M846 451L729 846L471 451H846ZM184 0H-154L846 1497H879L1325 0H975L915 213H319L184 0ZM1212 1901Q1183 1791 1132 1740T1001 1688Q981 1688 961 1691T921 1700L864 1718Q846 1723 832 1725T807 1729Q773 1729 750 1709T714 1649H608Q637 1759 689 1812T821 1866Q840 1866 861 1863T905 1853L962 1835Q977 1830 990 1828T1013 1825Q1047 1825 1070 1844T1106 1901H1212Z"  />
<glyph unicode="&#xC4;" horiz-adv-x="1356" d="M846 451L729 846L471 451H846ZM184 0H-154L846 1497H879L1325 0H975L915 213H319L184 0ZM612 1772Q612 1825 649 1863T739 1901Q794 1901 831 1864T868 1772Q868 1719 830 1682T739 1645Q688 1645 650 1683T612 1772ZM950 1772Q950 1825 988 1863T1079 1901Q1134 1901 1171 1864T1208 1772Q1208 1719 1170 1682T1079 1645Q1028 1645 989 1683T950 1772Z"  />
<glyph unicode="&#xC5;" horiz-adv-x="1356" d="M745 1722Q745 1670 780 1635T868 1599Q921 1599 956 1634T991 1722Q991 1775 956 1810T868 1845Q816 1845 781 1810T745 1722ZM846 451L729 846L471 451H846ZM184 0H-154L842 1477Q745 1483 682 1553T618 1722Q618 1826 691 1899T868 1972Q972 1972 1045 1899T1118 1722Q1118 1623 1052 1552T885 1475L1325 0H975L915 213H319L184 0Z"  />
<glyph unicode="&#xC6;" horiz-adv-x="1872" d="M836 545L946 1157H862L489 545H836ZM715 1450H1878L1827 1157H1278L1229 887H1753L1700 594H1178L1126 295H1696L1645 0H741L795 307H342L160 0H-180L715 1450Z"  />
<glyph unicode="&#xC7;" horiz-adv-x="1309" d="M1182 117Q1088 37 976 -5T745 -47Q448 -47 260 149T72 655Q72 834 132 992T307 1272Q411 1382 550 1440T846 1499Q975 1499 1092 1456T1331 1321L1192 1026Q1110 1108 1025 1149T850 1190Q672 1190 547 1040T422 674Q422 498 519 386T768 274Q842 274 917 311T1071 424L1182 117ZM434 -426L477 -315Q544 -338 601 -350T701 -362Q755 -362 787 -338T819 -272Q819 -231 784 -214T658 -197H619L688 0H778L744 -94H752Q863 -94 921 -137T979 -264Q979 -365 913 -422T729 -479Q674 -479 609 -468T434 -426Z"  />
<glyph unicode="&#xC8;" horiz-adv-x="1165" d="M35 0L291 1450H1171L1120 1157H571L524 887H1047L993 594H471L420 295H989L938 0H35ZM924 1608H807L506 1956H719L924 1608Z"  />
<glyph unicode="&#xC9;" horiz-adv-x="1165" d="M35 0L291 1450H1171L1120 1157H571L524 887H1047L993 594H471L420 295H989L938 0H35ZM764 1608H633L852 1956H1067L764 1608Z"  />
<glyph unicode="&#xCA;" horiz-adv-x="1165" d="M35 0L291 1450H1171L1120 1157H571L524 887H1047L993 594H471L420 295H989L938 0H35ZM1065 1608H946L817 1808L600 1608H469L723 1956H936L1065 1608Z"  />
<glyph unicode="&#xCB;" horiz-adv-x="1165" d="M35 0L291 1450H1171L1120 1157H571L524 887H1047L993 594H471L420 295H989L938 0H35ZM510 1772Q510 1825 547 1863T637 1901Q692 1901 729 1864T766 1772Q766 1719 728 1682T637 1645Q586 1645 548 1683T510 1772ZM848 1772Q848 1825 886 1863T977 1901Q1032 1901 1069 1864T1106 1772Q1106 1719 1068 1682T977 1645Q926 1645 887 1683T848 1772Z"  />
<glyph unicode="&#xCC;" horiz-adv-x="682" d="M39 0L295 1450H639L383 0H39ZM653 1608H536L235 1956H448L653 1608Z"  />
<glyph unicode="&#xCD;" horiz-adv-x="682" d="M39 0L295 1450H639L383 0H39ZM493 1608H362L581 1956H796L493 1608Z"  />
<glyph unicode="&#xCE;" horiz-adv-x="682" d="M39 0L295 1450H639L383 0H39ZM794 1608H675L546 1808L329 1608H198L452 1956H665L794 1608Z"  />
<glyph unicode="&#xCF;" horiz-adv-x="682" d="M39 0L295 1450H639L383 0H39ZM239 1772Q239 1825 276 1863T366 1901Q421 1901 458 1864T495 1772Q495 1719 457 1682T366 1645Q315 1645 277 1683T239 1772ZM577 1772Q577 1825 615 1863T706 1901Q761 1901 798 1864T835 1772Q835 1719 797 1682T706 1645Q655 1645 616 1683T577 1772Z"  />
<glyph unicode="&#xD0;" horiz-adv-x="1503" d="M442 307H545Q793 307 941 435T1090 772Q1090 955 974 1049T629 1143H588L539 866H811L776 668H504L442 307ZM47 0L166 668H-4L31 866H201L303 1450H604Q806 1450 940 1419T1171 1319Q1301 1227 1369 1091T1438 786Q1438 604 1362 450T1141 186Q1012 89 843 45T418 0H47Z"  />
<glyph unicode="&#xD1;" horiz-adv-x="1587" d="M35 0L295 1497H338L1083 647L1223 1450H1552L1286 -47H1243L500 805L358 0H35ZM1290 1901Q1261 1791 1210 1740T1079 1688Q1059 1688 1039 1691T999 1700L942 1718Q924 1723 910 1725T885 1729Q851 1729 828 1709T792 1649H686Q715 1759 767 1812T899 1866Q918 1866 939 1863T983 1853L1040 1835Q1055 1830 1068 1828T1091 1825Q1125 1825 1148 1844T1184 1901H1290Z"  />
<glyph unicode="&#xD2;" horiz-adv-x="1602" d="M68 659Q68 836 129 992T307 1272Q412 1383 551 1441T852 1499Q1154 1499 1343 1305T1532 801Q1532 627 1472 470T1298 190Q1190 74 1048 14T743 -47Q443 -47 256 149T68 659ZM825 1180Q662 1180 541 1032T420 676Q420 497 517 387T772 276Q937 276 1058 424T1180 780Q1180 957 1081 1068T825 1180ZM1073 1608H956L655 1956H868L1073 1608Z"  />
<glyph unicode="&#xD3;" horiz-adv-x="1602" d="M68 659Q68 836 129 992T307 1272Q412 1383 551 1441T852 1499Q1154 1499 1343 1305T1532 801Q1532 627 1472 470T1298 190Q1190 74 1048 14T743 -47Q443 -47 256 149T68 659ZM825 1180Q662 1180 541 1032T420 676Q420 497 517 387T772 276Q937 276 1058 424T1180 780Q1180 957 1081 1068T825 1180ZM913 1608H782L1001 1956H1216L913 1608Z"  />
<glyph unicode="&#xD4;" horiz-adv-x="1602" d="M68 659Q68 836 129 992T307 1272Q412 1383 551 1441T852 1499Q1154 1499 1343 1305T1532 801Q1532 627 1472 470T1298 190Q1190 74 1048 14T743 -47Q443 -47 256 149T68 659ZM825 1180Q662 1180 541 1032T420 676Q420 497 517 387T772 276Q937 276 1058 424T1180 780Q1180 957 1081 1068T825 1180ZM1214 1608H1095L966 1808L749 1608H618L872 1956H1085L1214 1608Z"  />
<glyph unicode="&#xD5;" horiz-adv-x="1602" d="M68 659Q68 836 129 992T307 1272Q412 1383 551 1441T852 1499Q1154 1499 1343 1305T1532 801Q1532 627 1472 470T1298 190Q1190 74 1048 14T743 -47Q443 -47 256 149T68 659ZM825 1180Q662 1180 541 1032T420 676Q420 497 517 387T772 276Q937 276 1058 424T1180 780Q1180 957 1081 1068T825 1180ZM1259 1901Q1230 1791 1179 1740T1048 1688Q1028 1688 1008 1691T968 1700L911 1718Q893 1723 879 1725T854 1729Q820 1729 797 1709T761 1649H655Q684 1759 736 1812T868 1866Q887 1866 908 1863T952 1853L1009 1835Q1024 1830 1037 1828T1060 1825Q1094 1825 1117 1844T1153 1901H1259Z"  />
<glyph unicode="&#xD6;" horiz-adv-x="1602" d="M68 659Q68 836 129 992T307 1272Q412 1383 551 1441T852 1499Q1154 1499 1343 1305T1532 801Q1532 627 1472 470T1298 190Q1190 74 1048 14T743 -47Q443 -47 256 149T68 659ZM825 1180Q662 1180 541 1032T420 676Q420 497 517 387T772 276Q937 276 1058 424T1180 780Q1180 957 1081 1068T825 1180ZM659 1772Q659 1825 696 1863T786 1901Q841 1901 878 1864T915 1772Q915 1719 877 1682T786 1645Q735 1645 697 1683T659 1772ZM997 1772Q997 1825 1035 1863T1126 1901Q1181 1901 1218 1864T1255 1772Q1255 1719 1217 1682T1126 1645Q1075 1645 1036 1683T997 1772Z"  />
<glyph unicode="&#xD7;" horiz-adv-x="1706" d="M416 1202L866 752L1317 1202L1458 1063L1008 610L1458 160L1317 20L866 471L416 20L276 160L727 610L276 1063L416 1202Z"  />
<glyph unicode="&#xD8;" horiz-adv-x="1602" d="M340 78L209 -72H-16L215 193Q139 293 103 405T66 651Q66 831 126 989T303 1270Q408 1381 549 1440T852 1499Q968 1499 1069 1468T1260 1374L1368 1497H1591L1380 1262Q1458 1163 1495 1052T1532 807Q1532 629 1472 470T1298 188Q1192 74 1049 14T741 -47Q626 -47 527 -16T340 78ZM1028 1116Q981 1148 933 1164T834 1180Q662 1180 540 1033T418 672Q418 617 428 568T461 473L1028 1116ZM569 340Q619 306 668 290T772 274Q937 274 1058 424T1180 782Q1180 841 1169 889T1135 981L569 340Z"  />
<glyph unicode="&#xD9;" horiz-adv-x="1522" d="M141 692L274 1450H614L477 672Q469 626 465 586T461 520Q461 393 526 325T713 256Q862 256 942 354T1065 696L1198 1450H1499L1356 631Q1292 272 1137 112T702 -49Q424 -49 271 87T117 469Q117 514 123 570T141 692ZM1063 1608H946L645 1956H858L1063 1608Z"  />
<glyph unicode="&#xDA;" horiz-adv-x="1522" d="M141 692L274 1450H614L477 672Q469 626 465 586T461 520Q461 393 526 325T713 256Q862 256 942 354T1065 696L1198 1450H1499L1356 631Q1292 272 1137 112T702 -49Q424 -49 271 87T117 469Q117 514 123 570T141 692ZM903 1608H772L991 1956H1206L903 1608Z"  />
<glyph unicode="&#xDB;" horiz-adv-x="1522" d="M141 692L274 1450H614L477 672Q469 626 465 586T461 520Q461 393 526 325T713 256Q862 256 942 354T1065 696L1198 1450H1499L1356 631Q1292 272 1137 112T702 -49Q424 -49 271 87T117 469Q117 514 123 570T141 692ZM1204 1608H1085L956 1808L739 1608H608L862 1956H1075L1204 1608Z"  />
<glyph unicode="&#xDC;" horiz-adv-x="1522" d="M141 692L274 1450H614L477 672Q469 626 465 586T461 520Q461 393 526 325T713 256Q862 256 942 354T1065 696L1198 1450H1499L1356 631Q1292 272 1137 112T702 -49Q424 -49 271 87T117 469Q117 514 123 570T141 692ZM649 1772Q649 1825 686 1863T776 1901Q831 1901 868 1864T905 1772Q905 1719 867 1682T776 1645Q725 1645 687 1683T649 1772ZM987 1772Q987 1825 1025 1863T1116 1901Q1171 1901 1208 1864T1245 1772Q1245 1719 1207 1682T1116 1645Q1065 1645 1026 1683T987 1772Z"  />
<glyph unicode="&#xDD;" horiz-adv-x="1262" d="M690 0H350L461 635L4 1450H373L670 899L1067 1450H1415L795 600L690 0ZM780 1608H649L868 1956H1083L780 1608Z"  />
<glyph unicode="&#xDE;" horiz-adv-x="1223" d="M35 0L291 1450H631L584 1190H645Q861 1190 1003 1061T1145 735Q1145 518 982 389T537 260H422L375 0H35ZM537 905L467 520Q485 519 503 519T549 518Q666 518 737 576T809 729Q809 815 750 861T582 907Q564 907 555 907T537 905Z"  />
<glyph unicode="&#xDF;" horiz-adv-x="1147" d="M-16 0L174 1083Q207 1265 329 1366T637 1468Q812 1468 926 1367T1040 1112Q1040 993 970 904T780 786Q895 741 954 643T1014 403Q1014 212 903 86T623 -41Q572 -41 518 -21T401 43L440 258Q473 224 501 209T557 193Q631 193 677 275T723 492Q723 584 683 631T543 700L576 893Q580 892 585 892T600 891Q674 891 717 954T760 1124Q760 1196 731 1234T645 1272Q579 1272 542 1227T487 1077L297 0H-16Z"  />
<glyph unicode="&#xE0;" horiz-adv-x="1130" d="M686 618Q662 667 628 691T547 715Q451 715 384 616T317 369Q317 291 355 244T457 197Q530 197 582 259T655 436L686 618ZM1049 901L891 0H578L594 94Q522 27 457 -4T324 -35Q184 -35 98 73T12 360Q12 607 139 770T457 934Q532 934 594 905T721 809L735 901H1049ZM822 1053H705L404 1401H617L822 1053Z"  />
<glyph unicode="&#xE1;" horiz-adv-x="1130" d="M686 618Q662 667 628 691T547 715Q451 715 384 616T317 369Q317 291 355 244T457 197Q530 197 582 259T655 436L686 618ZM1049 901L891 0H578L594 94Q522 27 457 -4T324 -35Q184 -35 98 73T12 360Q12 607 139 770T457 934Q532 934 594 905T721 809L735 901H1049ZM662 1053H531L750 1401H965L662 1053Z"  />
<glyph unicode="&#xE2;" horiz-adv-x="1130" d="M686 618Q662 667 628 691T547 715Q451 715 384 616T317 369Q317 291 355 244T457 197Q530 197 582 259T655 436L686 618ZM1049 901L891 0H578L594 94Q522 27 457 -4T324 -35Q184 -35 98 73T12 360Q12 607 139 770T457 934Q532 934 594 905T721 809L735 901H1049ZM963 1053H844L715 1253L498 1053H367L621 1401H834L963 1053Z"  />
<glyph unicode="&#xE3;" horiz-adv-x="1130" d="M686 618Q662 667 628 691T547 715Q451 715 384 616T317 369Q317 291 355 244T457 197Q530 197 582 259T655 436L686 618ZM1049 901L891 0H578L594 94Q522 27 457 -4T324 -35Q184 -35 98 73T12 360Q12 607 139 770T457 934Q532 934 594 905T721 809L735 901H1049ZM1008 1346Q979 1236 928 1185T797 1133Q777 1133 757 1136T717 1145L660 1163Q642 1168 628 1170T603 1174Q569 1174 546 1154T510 1094H404Q433 1204 485 1257T617 1311Q636 1311 657 1308T701 1298L758 1280Q773 1275 786 1273T809 1270Q843 1270 866 1289T902 1346H1008Z"  />
<glyph unicode="&#xE4;" horiz-adv-x="1130" d="M686 618Q662 667 628 691T547 715Q451 715 384 616T317 369Q317 291 355 244T457 197Q530 197 582 259T655 436L686 618ZM1049 901L891 0H578L594 94Q522 27 457 -4T324 -35Q184 -35 98 73T12 360Q12 607 139 770T457 934Q532 934 594 905T721 809L735 901H1049ZM408 1217Q408 1270 445 1308T535 1346Q590 1346 627 1309T664 1217Q664 1164 626 1127T535 1090Q484 1090 446 1128T408 1217ZM746 1217Q746 1270 784 1308T875 1346Q930 1346 967 1309T1004 1217Q1004 1164 966 1127T875 1090Q824 1090 785 1128T746 1217Z"  />
<glyph unicode="&#xE5;" horiz-adv-x="1130" d="M543 1268Q543 1214 579 1177T670 1139Q722 1139 759 1176T797 1268Q797 1321 760 1358T670 1395Q616 1395 580 1358T543 1268ZM412 1268Q412 1376 486 1451T668 1526Q776 1526 852 1451T928 1268Q928 1160 852 1085T668 1010Q560 1010 486 1084T412 1268ZM686 618Q662 667 628 691T547 715Q451 715 384 616T317 369Q317 291 355 244T457 197Q530 197 582 259T655 436L686 618ZM1049 901L891 0H578L594 94Q522 27 457 -4T324 -35Q184 -35 98 73T12 360Q12 607 139 770T457 934Q532 934 594 905T721 809L735 901H1049Z"  />
<glyph unicode="&#xE6;" horiz-adv-x="1569" d="M522 203L557 403H530Q404 403 331 364T258 258Q258 215 289 188T369 160Q400 160 436 170T522 203ZM842 537H1219Q1220 546 1220 555T1221 573Q1221 642 1176 686T1061 731Q987 731 926 678T842 537ZM657 84Q561 18 474 -11T291 -41Q151 -41 64 29T-23 213Q-23 371 129 450T580 530Q580 535 581 546Q584 583 584 594Q584 662 545 692T418 723Q352 723 278 706T125 655L158 883Q231 913 298 927T432 942Q523 942 599 917T743 838Q812 890 892 916T1065 942Q1245 942 1353 830T1462 530Q1462 505 1461 485T1458 444L1440 412H817V397Q817 297 876 243T1047 188Q1115 188 1197 211T1376 279L1337 41Q1253 0 1166 -20T985 -41Q888 -41 809 -11T657 84Z"  />
<glyph unicode="&#xE7;" horiz-adv-x="973" d="M852 575Q786 631 723 658T598 686Q478 686 398 615T317 442Q317 344 377 283T530 221Q590 221 647 239T772 299L821 43Q727 -2 646 -23T485 -45Q274 -45 142 81T10 408Q10 636 168 790T565 944Q660 944 749 918T922 838L852 575ZM172 -426L215 -315Q282 -338 339 -350T439 -362Q493 -362 525 -338T557 -272Q557 -231 522 -214T396 -197H357L426 0H516L482 -94H490Q601 -94 659 -137T717 -264Q717 -365 651 -422T467 -479Q412 -479 347 -468T172 -426Z"  />
<glyph unicode="&#xE8;" horiz-adv-x="1059" d="M330 537H711Q712 546 712 555T713 573Q713 642 668 686T551 731Q477 731 416 678T330 537ZM829 41Q743 -1 656 -22T483 -43Q274 -43 144 82T14 408Q14 630 169 786T547 942Q734 942 845 831T956 530Q956 505 955 485T952 444L934 412H305V397Q305 297 365 243T537 188Q605 188 687 210T868 279L829 41ZM752 1053H635L334 1401H547L752 1053Z"  />
<glyph unicode="&#xE9;" horiz-adv-x="1059" d="M330 537H711Q712 546 712 555T713 573Q713 642 668 686T551 731Q477 731 416 678T330 537ZM829 41Q743 -1 656 -22T483 -43Q274 -43 144 82T14 408Q14 630 169 786T547 942Q734 942 845 831T956 530Q956 505 955 485T952 444L934 412H305V397Q305 297 365 243T537 188Q605 188 687 210T868 279L829 41ZM592 1053H461L680 1401H895L592 1053Z"  />
<glyph unicode="&#xEA;" horiz-adv-x="1059" d="M330 537H711Q712 546 712 555T713 573Q713 642 668 686T551 731Q477 731 416 678T330 537ZM829 41Q743 -1 656 -22T483 -43Q274 -43 144 82T14 408Q14 630 169 786T547 942Q734 942 845 831T956 530Q956 505 955 485T952 444L934 412H305V397Q305 297 365 243T537 188Q605 188 687 210T868 279L829 41ZM893 1053H774L645 1253L428 1053H297L551 1401H764L893 1053Z"  />
<glyph unicode="&#xEB;" horiz-adv-x="1059" d="M330 537H711Q712 546 712 555T713 573Q713 642 668 686T551 731Q477 731 416 678T330 537ZM829 41Q743 -1 656 -22T483 -43Q274 -43 144 82T14 408Q14 630 169 786T547 942Q734 942 845 831T956 530Q956 505 955 485T952 444L934 412H305V397Q305 297 365 243T537 188Q605 188 687 210T868 279L829 41ZM338 1217Q338 1270 375 1308T465 1346Q520 1346 557 1309T594 1217Q594 1164 556 1127T465 1090Q414 1090 376 1128T338 1217ZM676 1217Q676 1270 714 1308T805 1346Q860 1346 897 1309T934 1217Q934 1164 896 1127T805 1090Q754 1090 715 1128T676 1217Z"  />
<glyph unicode="&#xEC;" horiz-adv-x="541" d="M-16 0L141 901H461L301 0H-16ZM481 1053H364L63 1401H276L481 1053Z"  />
<glyph unicode="&#xED;" horiz-adv-x="541" d="M-16 0L141 901H461L301 0H-16ZM321 1053H190L409 1401H624L321 1053Z"  />
<glyph unicode="&#xEE;" horiz-adv-x="541" d="M-16 0L141 901H461L301 0H-16ZM622 1053H503L374 1253L157 1053H26L280 1401H493L622 1053Z"  />
<glyph unicode="&#xEF;" horiz-adv-x="541" d="M-16 0L141 901H461L301 0H-16ZM67 1217Q67 1270 104 1308T194 1346Q249 1346 286 1309T323 1217Q323 1164 285 1127T194 1090Q143 1090 105 1128T67 1217ZM405 1217Q405 1270 443 1308T534 1346Q589 1346 626 1309T663 1217Q663 1164 625 1127T534 1090Q483 1090 444 1128T405 1217Z"  />
<glyph unicode="&#xF0;" horiz-adv-x="1118" d="M663 918Q644 964 620 1011T567 1106L307 989L254 1110L494 1217Q470 1251 446 1285T393 1356L588 1493Q624 1459 662 1417T739 1327L985 1436L1036 1315L815 1217Q919 1060 972 898T1026 580Q1026 309 870 134T477 -41Q267 -41 137 83T6 408Q6 629 157 786T516 944Q555 944 591 938T663 918ZM535 707Q452 707 391 621T330 412Q330 315 374 255T489 195Q573 195 631 281T690 494Q690 589 647 648T535 707Z"  />
<glyph unicode="&#xF1;" horiz-adv-x="1133" d="M-18 0L141 901H449L426 766Q499 848 576 888T741 928Q863 928 936 857T1010 670Q1010 655 1008 638T1004 605L897 0H584L676 512Q676 514 677 518Q684 565 684 590Q684 631 661 654T596 678Q519 678 457 614T375 442L295 0H-18ZM967 1346Q938 1236 887 1185T756 1133Q736 1133 716 1136T676 1145L619 1163Q601 1168 587 1170T562 1174Q528 1174 505 1154T469 1094H363Q392 1204 444 1257T576 1311Q595 1311 616 1308T660 1298L717 1280Q732 1275 745 1273T768 1270Q802 1270 825 1289T861 1346H967Z"  />
<glyph unicode="&#xF2;" horiz-adv-x="1118" d="M8 410Q8 635 163 789T549 944Q753 944 882 820T1012 498Q1012 271 859 115T483 -41Q270 -41 139 83T8 410ZM535 707Q452 707 391 620T330 410Q330 314 375 255T489 195Q572 195 631 281T690 494Q690 589 647 648T535 707ZM731 1053H614L313 1401H526L731 1053Z"  />
<glyph unicode="&#xF3;" horiz-adv-x="1118" d="M8 410Q8 635 163 789T549 944Q753 944 882 820T1012 498Q1012 271 859 115T483 -41Q270 -41 139 83T8 410ZM535 707Q452 707 391 620T330 410Q330 314 375 255T489 195Q572 195 631 281T690 494Q690 589 647 648T535 707ZM571 1053H440L659 1401H874L571 1053Z"  />
<glyph unicode="&#xF4;" horiz-adv-x="1118" d="M8 410Q8 635 163 789T549 944Q753 944 882 820T1012 498Q1012 271 859 115T483 -41Q270 -41 139 83T8 410ZM535 707Q452 707 391 620T330 410Q330 314 375 255T489 195Q572 195 631 281T690 494Q690 589 647 648T535 707ZM872 1053H753L624 1253L407 1053H276L530 1401H743L872 1053Z"  />
<glyph unicode="&#xF5;" horiz-adv-x="1118" d="M8 410Q8 635 163 789T549 944Q753 944 882 820T1012 498Q1012 271 859 115T483 -41Q270 -41 139 83T8 410ZM535 707Q452 707 391 620T330 410Q330 314 375 255T489 195Q572 195 631 281T690 494Q690 589 647 648T535 707ZM917 1346Q888 1236 837 1185T706 1133Q686 1133 666 1136T626 1145L569 1163Q551 1168 537 1170T512 1174Q478 1174 455 1154T419 1094H313Q342 1204 394 1257T526 1311Q545 1311 566 1308T610 1298L667 1280Q682 1275 695 1273T718 1270Q752 1270 775 1289T811 1346H917Z"  />
<glyph unicode="&#xF6;" horiz-adv-x="1118" d="M8 410Q8 635 163 789T549 944Q753 944 882 820T1012 498Q1012 271 859 115T483 -41Q270 -41 139 83T8 410ZM535 707Q452 707 391 620T330 410Q330 314 375 255T489 195Q572 195 631 281T690 494Q690 589 647 648T535 707ZM317 1217Q317 1270 354 1308T444 1346Q499 1346 536 1309T573 1217Q573 1164 535 1127T444 1090Q393 1090 355 1128T317 1217ZM655 1217Q655 1270 693 1308T784 1346Q839 1346 876 1309T913 1217Q913 1164 875 1127T784 1090Q733 1090 694 1128T655 1217Z"  />
<glyph unicode="&#xF7;" horiz-adv-x="1706" d="M854 369Q916 369 961 324T1006 217Q1006 156 961 112T854 68Q791 68 747 111T702 217Q702 280 746 324T854 369ZM254 711H1452V512H254V711ZM854 1155Q916 1155 961 1111T1006 1004Q1006 941 962 897T854 852Q791 852 747 896T702 1004Q702 1067 746 1111T854 1155Z"  />
<glyph unicode="&#xF8;" horiz-adv-x="1118" d="M307 334L643 711Q615 729 588 738T532 748Q435 748 366 655T297 430Q297 412 299 390T307 334ZM711 586L375 209Q403 190 429 181T483 172Q581 172 650 265T719 489Q719 514 717 537T711 586ZM-61 -72L109 119Q58 183 32 257T6 414Q6 638 163 791T555 944Q620 944 678 930T791 887L864 973H1063L907 795Q960 732 987 661T1014 510Q1014 272 860 117T467 -39Q395 -39 336 -24T223 25L137 -72H-61Z"  />
<glyph unicode="&#xF9;" horiz-adv-x="1133" d="M1053 901L893 0H584L608 135Q536 53 458 13T293 -27Q171 -27 98 44T25 231Q25 248 26 264T31 297L137 901H449L358 389Q358 387 358 384Q350 336 350 311Q350 270 373 247T438 223Q516 223 578 287T659 457L739 901H1053ZM766 1053H649L348 1401H561L766 1053Z"  />
<glyph unicode="&#xFA;" horiz-adv-x="1133" d="M1053 901L893 0H584L608 135Q536 53 458 13T293 -27Q171 -27 98 44T25 231Q25 248 26 264T31 297L137 901H449L358 389Q358 387 358 384Q350 336 350 311Q350 270 373 247T438 223Q516 223 578 287T659 457L739 901H1053ZM606 1053H475L694 1401H909L606 1053Z"  />
<glyph unicode="&#xFB;" horiz-adv-x="1133" d="M1053 901L893 0H584L608 135Q536 53 458 13T293 -27Q171 -27 98 44T25 231Q25 248 26 264T31 297L137 901H449L358 389Q358 387 358 384Q350 336 350 311Q350 270 373 247T438 223Q516 223 578 287T659 457L739 901H1053ZM907 1053H788L659 1253L442 1053H311L565 1401H778L907 1053Z"  />
<glyph unicode="&#xFC;" horiz-adv-x="1133" d="M1053 901L893 0H584L608 135Q536 53 458 13T293 -27Q171 -27 98 44T25 231Q25 248 26 264T31 297L137 901H449L358 389Q358 387 358 384Q350 336 350 311Q350 270 373 247T438 223Q516 223 578 287T659 457L739 901H1053ZM352 1217Q352 1270 389 1308T479 1346Q534 1346 571 1309T608 1217Q608 1164 570 1127T479 1090Q428 1090 390 1128T352 1217ZM690 1217Q690 1270 728 1308T819 1346Q874 1346 911 1309T948 1217Q948 1164 910 1127T819 1090Q768 1090 729 1128T690 1217Z"  />
<glyph unicode="&#xFD;" horiz-adv-x="915" d="M-6 -436L229 45L-35 901H285L424 416L639 901H920L276 -436H-6ZM499 1053H368L587 1401H802L499 1053Z"  />
<glyph unicode="&#xFE;" horiz-adv-x="1126" d="M406 612L346 283Q394 238 433 218T508 197Q596 197 655 294T715 541Q715 615 679 660T584 705Q543 705 500 682T406 612ZM242 1470H561L438 807Q510 874 575 905T709 936Q847 936 932 828T1018 541Q1018 296 895 127T598 -43Q520 -43 447 -8T313 92L219 -436H-94L242 1470Z"  />
<glyph unicode="&#xFF;" horiz-adv-x="915" d="M-6 -436L229 45L-35 901H285L424 416L639 901H920L276 -436H-6ZM245 1217Q245 1270 282 1308T372 1346Q427 1346 464 1309T501 1217Q501 1164 463 1127T372 1090Q321 1090 283 1128T245 1217ZM583 1217Q583 1270 621 1308T712 1346Q767 1346 804 1309T841 1217Q841 1164 803 1127T712 1090Q661 1090 622 1128T583 1217Z"  />
<glyph unicode="&#x131;" horiz-adv-x="541" d="M-16 0L141 901H461L301 0H-16Z"  />
<glyph unicode="&#x152;" horiz-adv-x="1896" d="M815 295L967 1157H856Q668 1157 543 1019T418 676Q418 507 517 401T772 295H815ZM1901 1450L1849 1157H1300L1253 887H1776L1724 594H1202L1149 295H1720L1667 0H764Q450 0 259 183T68 664Q68 840 134 993T326 1257Q436 1356 572 1403T885 1450H1901Z"  />
<glyph unicode="&#x153;" horiz-adv-x="1716" d="M813 74Q746 19 657 -11T469 -41Q267 -41 138 85T8 410Q8 636 164 790T551 944Q646 944 726 915T872 827Q946 886 1028 915T1202 944Q1389 944 1501 832T1614 530Q1614 505 1613 485T1610 444L1589 412H961V397Q961 297 1021 243T1194 188Q1262 188 1345 210T1526 279L1487 41Q1401 -1 1314 -22T1143 -43Q1043 -43 960 -14T813 74ZM985 537H1368Q1369 545 1369 554T1370 573Q1370 642 1325 686T1208 731Q1134 731 1072 678T985 537ZM539 713Q455 713 393 624T330 410Q330 312 376 250T494 188Q579 188 638 277T698 496Q698 592 654 652T539 713Z"  />
<glyph unicode="&#x160;" horiz-adv-x="1118" d="M49 55L111 397Q200 325 286 289T455 252Q544 252 598 298T653 418Q653 472 623 515T500 621L401 686Q265 777 208 866T150 1069Q150 1256 280 1377T616 1499Q718 1499 818 1470T1024 1378L915 1110Q825 1169 751 1196T604 1223Q544 1223 504 1187T463 1098Q463 1058 485 1024T555 958L696 864Q844 765 910 665T977 442Q977 225 835 89T461 -47Q360 -47 258 -22T49 55ZM484 1956H600L731 1757L949 1956H1080L824 1608H613L484 1956Z"  />
<glyph unicode="&#x161;" horiz-adv-x="854" d="M37 262Q125 211 199 186T332 160Q379 160 409 182T440 238Q440 266 419 287T324 342L264 371Q161 420 109 490T57 651Q57 777 159 859T424 942Q518 942 607 915T786 829L702 647Q628 693 563 717T446 741Q397 741 367 720T336 664Q336 633 362 610T473 551L528 528Q620 489 671 418T723 260Q723 126 618 43T340 -41Q237 -41 141 -14T-45 70L37 262ZM243 1401H359L490 1202L708 1401H839L583 1053H372L243 1401Z"  />
<glyph unicode="&#x178;" horiz-adv-x="1262" d="M690 0H350L461 635L4 1450H373L670 899L1067 1450H1415L795 600L690 0ZM526 1772Q526 1825 563 1863T653 1901Q708 1901 745 1864T782 1772Q782 1719 744 1682T653 1645Q602 1645 564 1683T526 1772ZM864 1772Q864 1825 902 1863T993 1901Q1048 1901 1085 1864T1122 1772Q1122 1719 1084 1682T993 1645Q942 1645 903 1683T864 1772Z"  />
<glyph unicode="&#x17D;" horiz-adv-x="1360" d="M-70 0L829 1161H104L166 1450H1425L582 307H1257L1208 0H-70ZM605 1956H721L852 1757L1070 1956H1201L945 1608H734L605 1956Z"  />
<glyph unicode="&#x17E;" horiz-adv-x="920" d="M-98 0L379 670H23L90 901H895L426 231H813L750 0H-98ZM276 1401H392L523 1202L741 1401H872L616 1053H405L276 1401Z"  />
<glyph unicode="&#x192;" horiz-adv-x="1180" d="M745 678L682 147Q650 -118 529 -254T205 -391Q169 -391 129 -386T39 -371L92 -86Q112 -90 133 -92T180 -94Q263 -94 312 -24T377 186L432 678H127L166 905H459Q497 1202 614 1349T928 1497Q985 1497 1036 1488T1135 1460L1092 1212Q1056 1221 1029 1225T979 1229Q885 1229 835 1151T772 905H1067L1028 678H745Z"  />
<glyph unicode="&#x2C6;" horiz-adv-x="1024" d="M852 1053H733L604 1253L387 1053H256L510 1401H723L852 1053Z"  />
<glyph unicode="&#x2C7;" horiz-adv-x="1024" d="M326 1401H442L573 1202L791 1401H922L666 1053H455L326 1401Z"  />
<glyph unicode="&#x2DC;" horiz-adv-x="1024" d="M897 1346Q868 1236 817 1185T686 1133Q666 1133 646 1136T606 1145L549 1163Q531 1168 517 1170T492 1174Q458 1174 435 1154T399 1094H293Q322 1204 374 1257T506 1311Q525 1311 546 1308T590 1298L647 1280Q662 1275 675 1273T698 1270Q732 1270 755 1289T791 1346H897Z"  />
<glyph unicode="&#x2013;" horiz-adv-x="1024" d="M-66 346L-29 555H991L956 346H-66Z"  />
<glyph unicode="&#x2014;" horiz-adv-x="2048" d="M-18 346L18 555H2066L2030 346H-18Z"  />
<glyph unicode="&#x2018;" horiz-adv-x="590" d="M614 1450L399 891H115L362 1450H614Z"  />
<glyph unicode="&#x2019;" horiz-adv-x="590" d="M614 1450L399 891H115L362 1450H614Z"  />
<glyph unicode="&#x201A;" horiz-adv-x="590" d="M422 252L207 -309H-78L170 252H422Z"  />
<glyph unicode="&#x201C;" horiz-adv-x="991" d="M1022 1450L805 891H522L770 1450H1022ZM621 1450L403 891H121L369 1450H621Z"  />
<glyph unicode="&#x201D;" horiz-adv-x="991" d="M1022 1450L805 891H522L770 1450H1022ZM621 1450L403 891H121L369 1450H621Z"  />
<glyph unicode="&#x201E;" horiz-adv-x="991" d="M817 252L602 -309H317L565 252H817ZM416 252L199 -309H-84L164 252H416Z"  />
<glyph unicode="&#x2020;" horiz-adv-x="1042" d="M252 -264Q303 -8 331 215T365 623L510 946L154 872L203 1104L526 1026L539 1450H776L612 1028L969 1094L918 864L592 944L598 614Q538 488 479 297T330 -264H252Z"  />
<glyph unicode="&#x2021;" horiz-adv-x="1042" d="M174 -252L344 178L-14 104L39 332L362 256V612L512 946L152 872L203 1104L524 1024L541 1450H778L610 1024L969 1094L920 864L592 944L594 598L442 256L801 326L754 98L428 176L410 -252H174Z"  />
<glyph unicode="&#x2022;" horiz-adv-x="1208" d="M307 762Q307 885 394 971T604 1057Q726 1057 812 971T899 762Q899 640 812 553T602 465Q479 465 393 552T307 762Z"  />
<glyph unicode="&#x2026;" horiz-adv-x="2048" d="M88 145Q88 215 138 265T258 315Q330 315 379 267T428 145Q428 75 379 25T258 -25Q189 -25 139 26T88 145ZM770 145Q770 215 820 265T940 315Q1012 315 1061 267T1110 145Q1110 75 1061 25T940 -25Q871 -25 821 26T770 145ZM1454 145Q1454 215 1504 265T1624 315Q1696 315 1745 267T1794 145Q1794 75 1745 25T1624 -25Q1555 -25 1505 26T1454 145Z"  />
<glyph unicode="&#x2030;" horiz-adv-x="2431" d="M1870 319Q1870 254 1917 206T2028 158Q2092 158 2139 205T2187 319Q2187 386 2140 434T2028 483Q1963 483 1917 435T1870 319ZM1659 322Q1659 474 1767 582T2028 690Q2181 690 2288 583T2396 322Q2396 169 2288 61T2028 -47Q1875 -47 1767 61T1659 322ZM1030 319Q1030 254 1077 206T1188 158Q1252 158 1300 205T1348 319Q1348 386 1301 434T1188 483Q1124 483 1077 435T1030 319ZM819 322Q819 474 927 582T1188 690Q1341 690 1448 583T1556 322Q1556 169 1449 61T1188 -47Q1036 -47 928 61T819 322ZM1182 1497H1335L412 -47H256L1182 1497ZM244 1128Q244 1063 292 1015T403 967Q468 967 514 1014T561 1128Q561 1196 515 1244T403 1292Q339 1292 292 1244T244 1128ZM35 1128Q35 1281 143 1389T403 1497Q557 1497 664 1390T772 1128Q772 976 664 869T403 762Q251 762 143 869T35 1128Z"  />
<glyph unicode="&#x2039;" horiz-adv-x="621" d="M467 137H227L29 451L303 764H545L279 451L467 137Z"  />
<glyph unicode="&#x203A;" horiz-adv-x="621" d="M66 764H307L506 451L229 137H-10L256 451L66 764Z"  />
<glyph unicode="&#x2122;" horiz-adv-x="1706" d="M803 1462H999L1126 1130L1249 1462H1446V915H1311V1325L1157 915H1096L938 1325V915H803V1462ZM207 1462H692V1350H524V915H375V1350H207V1462Z"  />

</font>
</defs>
</svg>
