<?xml  version="1.0" encoding="UTF-8"?>
<!DOCTYPE svg PUBLIC "-//W3C//DTD SVG 1.0//EN" "http://www.w3.org/TR/2001/REC-SVG-20010904/DTD/svg10.dtd" >
<svg xmlns="http://www.w3.org/2000/svg" >
<metadata>
<version>1.0</version>
<id><![CDATA[Geometric 415 W01 Black]]></id>
<vendor>Monotype Imaging Inc.</vendor>
<credits>
<name>Fonts.com WebFonts</name>
<URL>http://webfonts.fonts.com</URL>
<role>Home of the Web fonts</role>
</credits>
<license>
<URL>http://webfonts.fonts.com/Legal</URL>
</license>
<copyright><![CDATA[Copyright 1990-2003 Bitstream Inc. All rights reserved.]]></copyright>
<trademark></trademark>
<licensee>
<name></name>
</licensee>
</metadata>
<defs >
<font horiz-adv-x="1156" id="387ed45b-0063-4352-8ef6-2414e84e49d2">
<font-face font-family="" panose-1="2 11 8 2 2 2 4 2 3 3" ascent="1972" descent="-483" units-per-em="2048" alphabetic="0">
</font-face>
<missing-glyph horiz-adv-x="592" />

<glyph unicode="&#xA;" horiz-adv-x="0" />
<glyph unicode="&#xD;" horiz-adv-x="1184" />
<glyph unicode=" " horiz-adv-x="592" />
<glyph unicode="!" horiz-adv-x="653" d="M145 145Q145 215 195 265T315 315Q388 315 436 267T485 145Q485 75 436 25T315 -25Q247 -25 196 26T145 145ZM256 455Q198 740 167 984T129 1442L524 1497Q522 1237 362 469L356 440L256 455Z"  />
<glyph unicode="&quot;" horiz-adv-x="678" d="M406 1438H598V879H406V1438ZM80 1438H272V879H80V1438Z"  />
<glyph unicode="#" horiz-adv-x="1575" d="M709 848L621 604H872L958 848H709ZM709 1464H930L784 1049H1026L1174 1464H1395L1247 1049H1530L1456 848H1176L1092 606H1382L1311 406H1020L872 -10H651L799 406H555L406 -10H186L332 406H45L121 606H403L489 848H190L264 1049H561L709 1464Z"  />
<glyph unicode="$" horiz-adv-x="1186" d="M537 967V1237Q466 1225 429 1194T391 1116Q391 1073 426 1037T537 967ZM649 553V250Q716 270 748 305T780 393Q780 439 747 479T649 553ZM127 399Q246 324 341 289T524 250V610L395 686Q250 770 183 869T115 1098Q115 1257 227 1367T524 1493V1683H657L658 1491Q713 1486 781 1470T954 1421V1096Q852 1157 779 1189T657 1227V907L709 881Q902 781 985 675T1069 428Q1069 245 956 118T657 -35V-295H524V-43H506Q442 -43 363 -28T156 27L127 399Z"  />
<glyph unicode="%" horiz-adv-x="1597" d="M1184 1497H1337L414 -47H258L1184 1497ZM1032 319Q1032 254 1079 206T1190 158Q1254 158 1302 205T1350 319Q1350 386 1303 434T1190 483Q1126 483 1079 435T1032 319ZM821 322Q821 474 929 582T1190 690Q1343 690 1451 583T1559 322Q1559 169 1451 61T1190 -47Q1038 -47 930 61T821 322ZM248 1128Q248 1063 295 1015T406 967Q470 967 516 1014T563 1128Q563 1196 517 1244T406 1292Q341 1292 295 1244T248 1128ZM39 1128Q39 1282 146 1389T406 1497Q559 1497 666 1390T774 1128Q774 976 666 869T406 762Q254 762 147 869T39 1128Z"  />
<glyph unicode="&amp;" horiz-adv-x="1464" d="M623 969Q698 1010 738 1059T778 1159Q778 1211 743 1245T653 1280Q593 1280 556 1246T518 1157Q518 1116 545 1068T623 969ZM819 274L541 614Q464 578 426 526T387 408Q387 325 448 273T608 221Q654 221 705 234T819 274ZM1049 0L991 61Q887 4 790 -23T592 -51Q363 -51 217 73T70 383Q70 517 141 623T365 821Q300 899 268 979T236 1139Q236 1294 348 1396T631 1499Q811 1499 925 1400T1040 1151Q1040 1039 981 948T793 770L1057 457Q1083 486 1105 530T1167 684L1417 614Q1391 502 1345 411T1229 244L1434 0H1049Z"  />
<glyph unicode="&apos;" horiz-adv-x="352" d="M80 1438H272V879H80V1438Z"  />
<glyph unicode="(" horiz-adv-x="711" d="M672 1450Q522 1203 455 995T387 575Q387 364 455 154T672 -301H401Q259 -78 188 140T117 575Q117 792 187 1009T401 1450H672Z"  />
<glyph unicode=")" horiz-adv-x="711" d="M39 -301Q189 -53 257 156T326 575Q326 785 258 993T39 1450H311Q454 1227 525 1010T596 575Q596 359 525 141T311 -301H39Z"  />
<glyph unicode="*" horiz-adv-x="1024" d="M510 991L354 666L172 797L432 1049L78 1098L145 1311L463 1141L399 1497H623L559 1141L877 1313L946 1098L590 1049L852 797L668 666L510 991Z"  />
<glyph unicode="+" horiz-adv-x="1706" d="M752 1221H954V711H1452V512H954V0H752V512H254V711H752V1221Z"  />
<glyph unicode="&#x2c;" horiz-adv-x="592" d="M-6 -309L186 252H469L246 -309H-6Z"  />
<glyph unicode="-" horiz-adv-x="702" d="M86 311V590H616V311H86Z"  />
<glyph unicode="." horiz-adv-x="592" d="M127 145Q127 216 176 265T295 315Q367 315 417 266T467 145Q467 75 417 25T295 -25Q227 -25 177 26T127 145Z"  />
<glyph unicode="/" horiz-adv-x="616" d="M670 1497L129 -190H-20L520 1497H670Z"  />
<glyph unicode="0" horiz-adv-x="1186" d="M403 725Q403 510 453 388T592 266Q681 266 731 387T782 725Q782 943 732 1064T592 1186Q505 1186 454 1064T403 725ZM72 725Q72 1088 210 1292T592 1497Q835 1497 974 1292T1114 725Q1114 363 975 158T592 -47Q349 -47 211 157T72 725Z"  />
<glyph unicode="1" horiz-adv-x="1186" d="M469 0V1186H215L262 1450H791V0H469Z"  />
<glyph unicode="2" horiz-adv-x="1186" d="M43 0V117L567 745L571 750Q717 923 717 1018Q717 1095 666 1144T532 1194Q458 1194 404 1146T332 1014L55 1151Q118 1316 247 1406T551 1497Q760 1497 902 1365T1044 1036Q1044 915 980 786T782 508L592 297H1112L1063 0H43Z"  />
<glyph unicode="3" horiz-adv-x="1186" d="M203 418Q296 346 375 311T524 276Q614 276 668 323T723 446Q723 533 648 577T426 621H387V870Q553 877 634 924T715 1063Q715 1126 674 1166T567 1206Q509 1206 442 1169T295 1055L111 1249Q213 1375 329 1437T580 1499Q775 1499 903 1379T1032 1077Q1032 979 988 899T860 768Q957 720 1010 628T1063 414Q1063 208 919 80T541 -49Q406 -49 272 1T29 145L203 418Z"  />
<glyph unicode="4" horiz-adv-x="1186" d="M670 545V1098L313 545H670ZM670 0V287H57V559L633 1450H977V545H1126V287H977V0H670Z"  />
<glyph unicode="5" horiz-adv-x="1186" d="M170 389Q263 327 343 297T496 266Q605 266 674 327T743 485Q743 594 658 659T428 725Q361 725 301 716T186 686V1450H1030L946 1157H455V965Q460 965 472 966Q535 973 561 973Q785 973 928 832T1071 469Q1071 243 914 97T508 -49Q372 -49 250 -6T14 127L170 389Z"  />
<glyph unicode="6" horiz-adv-x="1186" d="M381 471Q381 379 441 315T588 250Q674 250 734 314T795 471Q795 564 735 628T588 692Q501 692 441 628T381 471ZM584 971Q590 971 602 972T621 973Q839 973 976 831T1114 465Q1114 248 962 102T582 -45Q362 -45 214 110T66 500Q66 702 203 935T627 1450H1014Q854 1282 759 1175T584 971Z"  />
<glyph unicode="7" horiz-adv-x="1186" d="M184 0L688 1163H84V1450H1137L524 0H184Z"  />
<glyph unicode="8" horiz-adv-x="1186" d="M592 891Q683 920 728 966T774 1075Q774 1144 722 1190T592 1237Q515 1237 464 1191T412 1075Q412 1013 456 968T592 891ZM592 629Q497 603 450 552T403 422Q403 346 457 294T592 242Q673 242 727 294T782 422Q782 501 737 551T592 629ZM301 784Q207 841 161 917T115 1090Q115 1268 248 1382T592 1497Q803 1497 937 1383T1071 1090Q1071 993 1025 917T885 784Q992 725 1050 628T1108 410Q1108 212 962 83T592 -47Q368 -47 223 82T78 410Q78 530 136 627T301 784Z"  />
<glyph unicode="9" horiz-adv-x="1186" d="M795 979Q795 1072 735 1136T590 1200Q503 1200 442 1136T381 979Q381 886 442 822T590 758Q676 758 735 821T795 979ZM592 479Q586 479 574 478T555 477Q337 477 199 620T61 989Q61 1207 214 1353T596 1499Q815 1499 962 1345T1110 954Q1110 749 972 514T551 0H164Q306 150 406 262T592 479Z"  />
<glyph unicode=":" horiz-adv-x="639" d="M150 758Q150 828 200 878T319 928Q392 928 440 879T489 758Q489 687 440 638T319 588Q251 588 201 639T150 758ZM150 145Q150 215 200 265T319 315Q392 315 440 267T489 145Q489 75 440 25T319 -25Q251 -25 201 26T150 145Z"  />
<glyph unicode=";" horiz-adv-x="639" d="M0 -309L190 252H473L250 -309H0ZM158 758Q158 828 207 878T326 928Q398 928 448 879T498 758Q498 688 448 638T326 588Q257 588 208 638T158 758Z"  />
<glyph unicode="&lt;" horiz-adv-x="1706" d="M1442 1194V975L549 610L1442 246V27L264 512V711L1442 1194Z"  />
<glyph unicode="=" horiz-adv-x="1706" d="M254 496H1452V297H254V496ZM254 926H1452V727H254V926Z"  />
<glyph unicode="&gt;" horiz-adv-x="1706" d="M264 1194L1442 711V512L264 27V246L1159 610L264 975V1194Z"  />
<glyph unicode="?" horiz-adv-x="1014" d="M227 442V811Q398 853 483 916T569 1063Q569 1132 518 1171T377 1210Q336 1210 284 1203T170 1182L190 1477Q243 1487 295 1492T399 1497Q620 1497 751 1387T883 1094Q883 936 781 817T494 639L487 485L227 442ZM188 145Q188 215 238 265T358 315Q431 315 479 267T528 145Q528 75 479 25T358 -25Q290 -25 239 26T188 145Z"  />
<glyph unicode="@" horiz-adv-x="2048" d="M1167 272Q1112 188 1040 149T870 109Q712 109 630 195T547 449Q547 688 686 850T1030 1012Q1110 1012 1169 979T1266 881L1319 979H1497L1350 381Q1347 370 1345 359T1343 340Q1343 305 1367 288T1438 270Q1477 270 1519 290T1599 346Q1685 426 1729 533T1774 768Q1774 1008 1589 1162T1110 1317Q969 1317 848 1283T627 1182Q457 1068 366 897T274 522Q274 215 481 32T1034 -152Q1196 -152 1350 -103T1638 39L1720 -78Q1567 -193 1396 -251T1038 -309Q846 -309 685 -261T399 -117Q244 4 167 162T90 520Q90 687 142 838T297 1114Q445 1295 653 1388T1116 1481Q1285 1481 1433 1436T1692 1307Q1827 1202 1893 1068T1960 764Q1960 599 1895 460T1706 221Q1636 165 1554 136T1382 106Q1276 106 1223 148T1167 272ZM1217 700Q1204 781 1160 823T1042 866Q928 866 844 742T760 444Q760 352 800 304T918 256Q1001 256 1069 319T1163 483L1217 700Z"  />
<glyph unicode="A" horiz-adv-x="1366" d="M481 461H862L674 915L481 461ZM-61 0L678 1495H700L1423 0H1061L969 211H381L287 0H-61Z"  />
<glyph unicode="B" horiz-adv-x="1255" d="M481 262H625Q729 262 788 313T848 453Q848 540 790 587T625 635H481V262ZM481 877H596Q698 877 755 921T813 1047Q813 1128 759 1166T588 1204H481V877ZM166 0V1450H614Q867 1450 996 1358T1126 1083Q1126 972 1067 895T889 774Q1021 744 1096 651T1171 422Q1171 213 1017 107T559 0H166Z"  />
<glyph unicode="C" horiz-adv-x="1341" d="M1237 991Q1143 1088 1047 1135T844 1182Q660 1182 543 1055T426 729Q426 530 542 407T844 283Q954 283 1063 329T1282 467L1260 82Q1167 19 1057 -14T827 -47Q699 -47 582 -7T365 111Q225 221 151 379T76 725Q76 886 131 1027T291 1276Q397 1384 536 1441T829 1499Q951 1499 1062 1465T1274 1362L1237 991Z"  />
<glyph unicode="D" horiz-adv-x="1493" d="M508 311H584Q811 311 939 421T1067 725Q1067 919 939 1030T584 1141H508V311ZM166 0V1450H551Q957 1450 1187 1256T1417 725Q1417 523 1326 367T1059 109Q959 51 842 26T551 0H166Z"  />
<glyph unicode="E" horiz-adv-x="1165" d="M166 0V1450H1059V1151H502V889H979V592H502V305H1067V0H166Z"  />
<glyph unicode="F" horiz-adv-x="1128" d="M166 0V1450H1067V1155H510V866H1008V573H510V0H166Z"  />
<glyph unicode="G" horiz-adv-x="1518" d="M1397 805V100Q1251 27 1113 -10T844 -47Q513 -47 295 171T76 723Q76 1059 297 1279T858 1499Q986 1499 1102 1464T1325 1358L1288 995Q1187 1097 1087 1144T877 1192Q682 1192 554 1062T426 735Q426 529 549 399T868 268Q913 268 959 276T1055 299V510H780V805H1397Z"  />
<glyph unicode="H" horiz-adv-x="1575" d="M166 0V1450H508V918H1067V1450H1407V0H1067V608H508V0H166Z"  />
<glyph unicode="I" horiz-adv-x="688" d="M170 0V1450H516V0H170Z"  />
<glyph unicode="J" horiz-adv-x="862" d="M2 303Q57 279 103 267T184 254Q287 254 331 321T375 551V1450H723V469Q723 218 594 86T221 -47Q175 -47 130 -41T35 -23L2 303Z"  />
<glyph unicode="K" horiz-adv-x="1395" d="M166 0V1450H508V819L987 1450H1399L852 760L1442 0H1024L508 668V0H166Z"  />
<glyph unicode="L" horiz-adv-x="1081" d="M166 0V1450H512V311H1077V0H166Z"  />
<glyph unicode="M" horiz-adv-x="1810" d="M47 0L348 1497H373L920 553L1436 1497H1462L1765 0H1436L1313 662L924 -53H901L483 672L356 0H47Z"  />
<glyph unicode="N" horiz-adv-x="1587" d="M166 0V1497H199L1102 651V1450H1421V-55H1391L485 791V0H166Z"  />
<glyph unicode="O" horiz-adv-x="1630" d="M432 725Q432 536 542 409T815 281Q978 281 1088 408T1198 725Q1198 916 1088 1043T815 1171Q653 1171 543 1044T432 725ZM76 725Q76 886 131 1026T295 1278Q397 1384 532 1440T815 1497Q963 1497 1098 1440T1339 1276Q1445 1169 1499 1029T1554 725Q1554 589 1516 469T1403 250Q1297 109 1143 31T815 -47Q668 -47 534 10T295 174Q187 285 132 424T76 725Z"  />
<glyph unicode="P" horiz-adv-x="1210" d="M559 1184H512V797H575Q706 797 775 847T844 993Q844 1092 776 1138T559 1184ZM166 0V1450H539Q711 1450 812 1425T991 1341Q1072 1282 1116 1194T1161 1006Q1161 786 1005 657T580 528Q552 528 538 528T512 530V0H166Z"  />
<glyph unicode="Q" horiz-adv-x="1630" d="M238 -115Q251 -44 273 27T328 172Q203 284 140 426T76 735Q76 863 115 983T229 1202Q335 1343 488 1420T815 1497Q939 1497 1053 1458T1266 1341Q1405 1232 1479 1073T1554 725Q1554 575 1496 436T1333 195Q1239 101 1120 50T881 -2Q830 -2 707 24L705 25L702 4Q770 -11 1004 -90T1405 -178L1321 -438Q1136 -424 806 -283Q763 -265 741 -256L729 -251Q446 -131 238 -115ZM432 725Q432 536 542 409T815 281Q978 281 1088 408T1198 725Q1198 916 1088 1043T815 1171Q653 1171 543 1044T432 725Z"  />
<glyph unicode="R" horiz-adv-x="1305" d="M559 1186H502V784H575Q706 784 775 837T844 989Q844 1093 777 1139T559 1186ZM166 0V1450H539Q718 1450 816 1427T991 1348Q1072 1290 1116 1205T1161 1024Q1161 887 1092 784T891 623L1333 0H938L551 569H502V0H166Z"  />
<glyph unicode="S" horiz-adv-x="1128" d="M100 410Q234 328 327 295T510 262Q600 262 654 301T709 403Q709 492 515 603Q484 621 467 631L369 686Q226 767 157 869T88 1100Q88 1275 220 1387T561 1499Q638 1499 728 1481T928 1425V1085Q823 1151 729 1187T569 1223Q496 1223 454 1192T412 1106Q412 1068 437 1035T512 975L682 881Q895 763 968 663T1042 426Q1042 214 898 84T514 -47Q433 -47 338 -30T129 23L100 410Z"  />
<glyph unicode="T" horiz-adv-x="1266" d="M461 0V1147H0V1450H1266V1147H807V0H461Z"  />
<glyph unicode="U" horiz-adv-x="1522" d="M494 1450V653Q494 461 564 366T778 270Q916 270 988 359T1061 618V1450H1370V618Q1370 304 1209 129T762 -47Q473 -47 313 127T152 616V1450H494Z"  />
<glyph unicode="V" horiz-adv-x="1294" d="M659 -55H635L-49 1450H317L659 657L1004 1450H1343L659 -55Z"  />
<glyph unicode="W" horiz-adv-x="1831" d="M586 -47L-20 1450H330L612 668L915 1497H942L1247 668L1526 1450H1849L1247 -47H1225L915 782L612 -47H586Z"  />
<glyph unicode="X" horiz-adv-x="1475" d="M16 0L537 750L23 1450H446L745 1036L1026 1450H1403L936 780L1507 0H1081L729 492L395 0H16Z"  />
<glyph unicode="Y" horiz-adv-x="1270" d="M446 0V688L-72 1450H346L649 991L983 1450H1350L791 702V0H446Z"  />
<glyph unicode="Z" horiz-adv-x="1370" d="M35 0L756 1147H109L164 1450H1315L596 307H1315L1260 0H35Z"  />
<glyph unicode="[" horiz-adv-x="711" d="M707 -301H170V1450H707V1339H422V-190H707V-301Z"  />
<glyph unicode="\" horiz-adv-x="616" d="M520 -190L-20 1497H129L668 -190H520Z"  />
<glyph unicode="]" horiz-adv-x="711" d="M4 1450H541V-301H4V-190H289V1339H4V1450Z"  />
<glyph unicode="^" horiz-adv-x="2048" d="M897 1460H1149L1630 899H1395L1024 1270L651 899H416L897 1460Z"  />
<glyph unicode="_" horiz-adv-x="1024" d="M0 -279H1024V-483H0V-279Z"  />
<glyph unicode="`" horiz-adv-x="1024" d="M659 1055H528L233 1401H455L659 1055Z"  />
<glyph unicode="a" horiz-adv-x="1133" d="M702 672Q674 688 649 695T598 702Q509 702 448 628T387 440Q387 334 440 264T571 193Q602 193 634 209T702 260V672ZM1016 901V338Q1016 232 1020 160T1032 37L741 -43L713 43Q654 -1 598 -22T479 -43Q305 -43 187 96T68 442Q68 660 201 802T537 944Q584 944 635 931T748 891L1016 901Z"  />
<glyph unicode="b" horiz-adv-x="1133" d="M432 207Q466 198 489 194T532 190Q624 190 686 265T748 455Q748 559 697 622T563 686Q540 686 508 675T432 639V207ZM119 -43V1427L432 1470V862Q492 893 547 908T655 924Q839 924 953 794T1067 453Q1067 231 932 95T575 -41Q547 -41 512 -38T433 -27L319 0L119 -43Z"  />
<glyph unicode="c" horiz-adv-x="999" d="M909 51Q826 4 746 -18T580 -41Q355 -41 211 94T66 436Q66 651 221 796T612 942Q698 942 780 923T938 864L903 584Q829 629 761 652T633 676Q527 676 457 612T387 451Q387 349 452 287T623 225Q689 225 764 253T938 346L909 51Z"  />
<glyph unicode="d" horiz-adv-x="1133" d="M702 672Q674 688 649 695T598 702Q509 702 448 628T387 440Q387 334 440 264T571 193Q601 193 633 205T702 244V672ZM1016 1470V0L741 -43L729 27Q663 -9 599 -26T469 -43Q280 -43 174 82T68 428Q68 660 192 800T522 940Q570 940 614 931T702 901V1427L1016 1470Z"  />
<glyph unicode="e" horiz-adv-x="1063" d="M365 535L756 547V561Q756 632 706 677T580 723Q495 723 438 674T365 535ZM963 322L928 45Q836 1 747 -20T567 -41Q342 -41 204 88T66 426Q66 643 217 792T584 942Q769 942 887 833T1006 549Q1006 522 1002 463L1001 457L973 416L358 399Q365 308 434 252T608 195Q682 195 772 227T963 322Z"  />
<glyph unicode="f" horiz-adv-x="721" d="M709 901V664H494V0H174V664H43V901H174V981Q174 1149 226 1269T367 1427L723 1470V1372Q607 1343 551 1262T494 1040V901H709Z"  />
<glyph unicode="g" horiz-adv-x="1133" d="M702 672Q674 688 649 695T598 702Q509 702 448 628T387 440Q387 334 440 264T571 193Q601 193 634 210T702 260V672ZM1016 901V84Q1016 -40 1004 -102T965 -217Q909 -325 802 -380T543 -436Q452 -436 359 -416T160 -354L156 -104Q256 -158 338 -183T492 -209Q597 -209 655 -159T713 -18V43Q659 9 606 -7T494 -23Q303 -23 186 105T68 442Q68 659 201 801T537 944Q584 944 635 931T748 891L1016 901Z"  />
<glyph unicode="h" horiz-adv-x="1139" d="M436 0H123V1427L436 1470V774Q502 851 577 888T741 926Q884 926 958 844T1032 604V0H721V516Q721 587 692 623T606 659Q524 659 480 604T436 444V0Z"  />
<glyph unicode="i" horiz-adv-x="545" d="M100 1237Q100 1309 150 1359T272 1409Q345 1409 394 1360T444 1237Q444 1165 394 1114T272 1063Q202 1063 151 1114T100 1237ZM432 0H115V901L432 944V0Z"  />
<glyph unicode="j" horiz-adv-x="545" d="M106 1237Q106 1309 156 1359T279 1409Q351 1409 401 1360T451 1237Q451 1165 401 1114T279 1063Q208 1063 157 1114T106 1237ZM438 -4Q438 -128 422 -213T369 -369L-51 -434Q40 -345 80 -238T121 31V901L438 944V-4Z"  />
<glyph unicode="k" horiz-adv-x="1053" d="M426 0H123V1427L426 1470V530L702 901H1030L717 516L1104 0H758L426 479V0Z"  />
<glyph unicode="l" horiz-adv-x="545" d="M432 0H115V1427L432 1470V0Z"  />
<glyph unicode="m" horiz-adv-x="1726" d="M1028 0H715V516Q715 585 686 622T602 659Q525 659 482 603T438 444V0H125V901H416V750Q494 842 570 884T737 926Q836 926 900 885T1010 754Q1076 840 1154 883T1325 926Q1475 926 1546 842T1618 580V0H1305V516Q1305 585 1276 622T1192 659Q1114 659 1071 603T1028 444V0Z"  />
<glyph unicode="n" horiz-adv-x="1139" d="M436 0H123V901H412V750Q484 839 565 882T741 926Q884 926 958 844T1032 604V0H721V516Q721 587 692 623T606 659Q524 659 480 604T436 444V0Z"  />
<glyph unicode="o" horiz-adv-x="1118" d="M383 451Q383 336 432 266T559 195Q636 195 685 266T735 451Q735 564 686 635T559 707Q482 707 433 636T383 451ZM63 451Q63 666 203 805T559 944Q775 944 916 805T1057 451Q1057 236 916 97T559 -43Q345 -43 204 96T63 451Z"  />
<glyph unicode="p" horiz-adv-x="1133" d="M123 -434V901H436Q483 919 529 927T623 936Q818 936 944 801T1071 453Q1071 232 935 96T578 -41Q549 -41 516 -38T434 -27V-381L123 -434ZM436 207Q469 198 493 194T537 190Q628 190 689 265T750 455Q750 562 695 632T557 702Q532 702 504 697T436 678V207Z"  />
<glyph unicode="q" horiz-adv-x="1133" d="M702 686Q674 694 647 698T598 702Q508 702 448 628T387 440Q387 334 440 264T571 193Q596 193 625 201T702 233V686ZM1016 901V-393L702 -436V16Q642 -13 586 -28T479 -43Q291 -43 179 82T66 418Q66 653 192 793T530 934Q576 934 629 926T748 901H1016Z"  />
<glyph unicode="r" horiz-adv-x="797" d="M438 0H123V901H416L422 743Q476 838 548 881T729 924H754V588H721H686Q539 588 489 555T438 393V0Z"  />
<glyph unicode="s" horiz-adv-x="868" d="M119 41V289Q238 213 304 187T426 160Q475 160 505 181T535 238Q535 268 514 288T442 326L326 367Q212 406 153 476T94 643Q94 779 189 861T442 944Q515 944 596 924T778 860L739 641Q679 692 608 721T475 750Q429 750 400 729T371 674Q371 646 387 630T461 594L569 555Q696 510 750 446T805 279Q805 130 707 44T440 -43Q358 -43 279 -23T119 41Z"  />
<glyph unicode="t" horiz-adv-x="725" d="M174 303V664H43V901H174V1171L494 1214V901H707V664H494V281Q494 159 527 105T651 4L295 -20Q228 12 201 75T174 303Z"  />
<glyph unicode="u" horiz-adv-x="1130" d="M707 901H1018V0L729 -43V133Q656 43 576 0T401 -43Q258 -43 184 39T109 279V901H422V367Q422 296 451 260T537 223Q619 223 663 278T707 438V901Z"  />
<glyph unicode="v" horiz-adv-x="909" d="M438 -57L-14 901H332L481 557L637 901H926L467 -57H438Z"  />
<glyph unicode="w" horiz-adv-x="1436" d="M475 -57H449L-12 901H326L512 494L729 954H766L971 494L1165 901H1452L977 -57H950L719 451L475 -57Z"  />
<glyph unicode="x" horiz-adv-x="938" d="M-41 0L303 444L-20 901H346L496 690L659 901H967L643 479L983 0H614L451 233L270 0H-41Z"  />
<glyph unicode="y" horiz-adv-x="920" d="M324 0L0 901H338L483 436L662 901H940L375 -436H37Q113 -364 177 -274T289 -80L324 0Z"  />
<glyph unicode="z" horiz-adv-x="928" d="M-4 0L399 664H51L106 901H897L494 238H885L848 0H-4Z"  />
<glyph unicode="{" horiz-adv-x="1024" d="M883 1477V1268Q874 1268 858 1269T836 1270Q735 1270 700 1232T664 1069V829Q664 681 619 619T457 530Q574 503 619 442T664 233V-8Q664 -131 699 -169T836 -207Q842 -207 858 -206T883 -205V-414Q869 -414 844 -415T807 -416Q707 -416 640 -404T526 -367Q469 -333 446 -276T422 -76V176Q422 313 371 370T199 428Q193 428 179 427T158 426V635Q165 635 179 634T199 633Q319 633 370 691T422 887V1137Q422 1280 445 1338T526 1430Q573 1455 640 1467T807 1479Q819 1479 844 1478T883 1477Z"  />
<glyph unicode="|" horiz-adv-x="1024" d="M410 1565H616V-483H410V1565Z"  />
<glyph unicode="}" horiz-adv-x="1024" d="M143 1477H211Q321 1477 388 1465T500 1427Q557 1395 580 1336T604 1137V885Q604 748 655 691T827 633Q833 633 847 634T868 635V426H831Q706 426 655 370T604 176V-76Q604 -219 581 -277T500 -367Q453 -392 386 -404T219 -416Q207 -416 182 -415T143 -414V-205Q152 -205 168 -206T190 -207Q291 -207 326 -169T362 -8V231Q362 381 407 442T569 530Q452 557 407 619T362 829V1071Q362 1193 327 1231T190 1270Q184 1270 168 1269T143 1268V1477Z"  />
<glyph unicode="~" horiz-adv-x="1706" d="M1530 803V582Q1426 511 1334 478T1151 444Q1105 444 1059 452T967 475Q943 483 896 500Q677 575 563 575Q478 575 386 538T178 418V639Q285 711 382 746T565 782Q682 782 856 724L860 723Q878 717 915 704Q1070 649 1155 649Q1240 649 1330 686T1530 803Z"  />
<glyph unicode="&#xA0;" horiz-adv-x="1186" />
<glyph unicode="&#xA1;" horiz-adv-x="653" d="M397 995Q456 710 487 466T524 8L129 -47Q131 213 291 981L297 1010L397 995ZM508 1329Q508 1259 459 1209T340 1159Q267 1159 218 1208T168 1329Q168 1399 218 1448T340 1497Q408 1497 458 1447T508 1329Z"  />
<glyph unicode="&#xA2;" horiz-adv-x="1186" d="M553 301L694 716Q589 715 520 650T451 489Q451 428 475 383T553 301ZM977 90Q893 45 813 23T649 0H616H600L508 -272H358L459 27Q310 74 222 196T133 475Q133 692 288 837T678 983Q704 983 730 981T782 975L868 1227H1018L922 941Q939 934 960 925T1005 903L969 623Q932 647 898 664T834 690L690 266H702Q760 266 831 294T1006 387L977 90Z"  />
<glyph unicode="&#xA3;" horiz-adv-x="1186" d="M88 -43V287Q187 339 236 425T285 633V662H88V852H256Q240 939 233 1000T225 1102Q225 1284 341 1391T653 1499Q785 1499 886 1444T1073 1272L836 1100Q808 1171 769 1206T678 1241Q619 1241 586 1202T553 1092Q553 1063 566 981T586 852H895V662H606V647Q606 559 588 482T530 332Q607 283 666 260T772 236Q825 236 858 260T915 342L1147 240Q1109 102 1023 28T815 -47Q737 -47 642 -9T399 123Q321 52 245 12T88 -43Z"  />
<glyph unicode="&#xA4;" horiz-adv-x="1186" d="M1133 451L1112 82Q1024 13 945 -17T772 -47Q534 -47 370 101T154 508H0L31 641H135Q134 656 134 673T133 725Q133 743 134 764T137 825H0L31 958H158Q214 1208 378 1352T774 1497Q870 1497 950 1467T1126 1360L1094 995Q1001 1105 935 1145T786 1186Q685 1186 611 1127T500 958H948L918 825H471Q468 802 467 778T465 729Q465 712 465 695T469 641H872L842 508H496Q531 391 606 329T786 266Q872 266 950 306T1133 451Z"  />
<glyph unicode="&#xA5;" horiz-adv-x="1270" d="M473 0V555H57V688H475L358 872H57V1006H276L2 1450H383L657 963L963 1450H1296L991 1006H1204V872H903L788 688H1204V555H786V0H473Z"  />
<glyph unicode="&#xA6;" horiz-adv-x="1024" d="M410 408H616V-350H410V408ZM410 1432H616V674H410V1432Z"  />
<glyph unicode="&#xA7;" horiz-adv-x="1024" d="M305 803Q305 767 336 721T459 584L474 568Q584 455 643 455Q676 455 697 479T719 541Q719 565 691 605T584 733Q507 815 462 848T383 881Q352 881 329 857T305 803ZM158 -14L317 100Q360 41 404 9T489 -23Q533 -23 562 6T592 78Q592 114 568 153T471 264L268 469Q170 569 132 638T94 780Q94 873 149 939T301 1030Q258 1103 242 1150T225 1245Q225 1360 307 1428T530 1497Q626 1497 702 1456T846 1325L688 1210Q637 1267 599 1290T522 1313Q487 1313 465 1291T442 1235Q442 1175 562 1056L569 1049L750 868Q851 766 889 698T928 557Q928 454 876 392T717 301Q762 245 784 188T807 70Q807 -60 724 -134T498 -209Q398 -209 317 -163T158 -14Z"  />
<glyph unicode="&#xA8;" horiz-adv-x="1024" d="M573 1217Q573 1264 610 1300T696 1337Q745 1337 780 1302T815 1217Q815 1163 782 1130T696 1096Q645 1096 609 1131T573 1217ZM209 1217Q209 1265 245 1301T330 1337Q379 1337 415 1302T451 1217Q451 1163 417 1130T330 1096Q279 1096 244 1131T209 1217Z"  />
<glyph unicode="&#xA9;" horiz-adv-x="1706" d="M1212 897H1024Q1016 967 971 1005T852 1044Q761 1044 709 963T657 735Q657 588 709 511T860 434Q933 434 977 476T1030 595L1223 596Q1215 457 1114 373T854 289Q668 289 561 407T453 729Q453 935 562 1057T856 1180Q1008 1180 1106 1102T1212 897ZM854 1356Q726 1356 615 1310T416 1176Q327 1086 280 973T233 735Q233 610 280 498T416 297Q504 209 617 162T854 115Q978 115 1091 162T1296 299Q1384 385 1429 496T1475 735Q1475 861 1429 973T1294 1174Q1205 1263 1093 1309T854 1356ZM852 1479Q1004 1479 1139 1423T1382 1260Q1487 1155 1542 1020T1597 733Q1597 581 1543 449T1382 213Q1271 105 1134 48T852 -10Q705 -10 572 46T330 211Q223 317 167 451T111 733Q111 882 167 1017T330 1262Q435 1368 568 1423T852 1479Z"  />
<glyph unicode="&#xAA;" horiz-adv-x="850" d="M526 1292Q507 1303 488 1308T449 1313Q383 1313 337 1261T291 1130Q291 1055 330 1006T428 956Q451 956 475 968T526 1004V1292ZM762 1452V1059Q762 991 765 939T774 848L557 791L535 852Q490 821 448 806T360 791Q230 791 141 888T51 1130Q51 1283 151 1383T403 1483Q435 1483 471 1475T561 1446L762 1452Z"  />
<glyph unicode="&#xAB;" horiz-adv-x="1024" d="M956 764L713 451L956 137H717L463 451L717 764H956ZM561 764L317 451L561 137H319L66 451L319 764H561Z"  />
<glyph unicode="&#xAC;" horiz-adv-x="1706" d="M254 864H1452V362H1253V668H254V864Z"  />
<glyph unicode="&#xAD;" horiz-adv-x="702" d="M86 311V590H616V311H86Z"  />
<glyph unicode="&#xAE;" horiz-adv-x="1706" d="M745 1034V795H844Q932 795 973 823T1014 911Q1014 974 970 1004T834 1034H745ZM545 1161H868Q1044 1161 1132 1102T1221 924Q1221 842 1173 784T1040 705L1225 336H1001L844 674H745V336H545V1161ZM854 1356Q727 1356 618 1312T422 1180Q331 1089 282 974T233 735Q233 611 279 500T412 301Q501 210 615 162T852 113Q972 113 1085 160T1292 295Q1379 379 1427 491T1475 723Q1475 856 1431 968T1298 1169Q1208 1262 1096 1309T854 1356ZM852 1479Q1006 1479 1142 1422T1386 1255Q1489 1151 1543 1017T1597 733Q1597 581 1541 446T1378 207Q1271 102 1135 46T852 -10Q703 -10 567 48T324 215Q220 320 166 453T111 733Q111 835 138 931T219 1120Q320 1290 486 1384T852 1479Z"  />
<glyph unicode="&#xAF;" horiz-adv-x="1024" d="M236 1143V1290H788V1143H236Z"  />
<glyph unicode="&#xB0;" horiz-adv-x="674" d="M338 1335Q265 1335 214 1284T162 1161Q162 1087 213 1036T338 985Q410 985 461 1037T512 1161Q512 1233 461 1284T338 1335ZM338 1464Q464 1464 552 1375T641 1159Q641 1034 552 945T336 856Q210 856 123 944T35 1159Q35 1286 123 1375T338 1464Z"  />
<glyph unicode="&#xB1;" horiz-adv-x="1706" d="M254 197H1452V-2H254V197ZM752 1223H954V897H1452V698H954V373H752V698H254V897H752V1223Z"  />
<glyph unicode="&#xB2;" horiz-adv-x="782" d="M29 580V649L375 1026L382 1034Q473 1135 473 1190Q473 1236 439 1266T352 1296Q303 1296 267 1267T219 1188L37 1270Q78 1370 163 1424T365 1479Q502 1479 596 1399T690 1202Q690 1129 648 1052T516 885L391 758H733L702 580H29Z"  />
<glyph unicode="&#xB3;" horiz-adv-x="782" d="M133 829Q196 787 248 766T346 745Q405 745 441 773T477 848Q477 899 427 925T281 952H256V1101Q364 1105 417 1133T471 1217Q471 1255 445 1279T375 1303Q336 1303 293 1281T195 1212L74 1329Q140 1404 217 1441T383 1479Q512 1479 597 1407T682 1227Q682 1167 653 1119T567 1040Q632 1011 667 956T702 827Q702 704 607 628T356 551Q267 551 179 581T18 668L133 829Z"  />
<glyph unicode="&#xB4;" horiz-adv-x="1024" d="M365 1055L569 1401H791L496 1055H365Z"  />
<glyph unicode="&#xB5;" horiz-adv-x="1249" d="M205 1092H494L418 657Q403 577 395 506T387 389Q387 296 429 251T557 205Q657 205 712 287T805 578L895 1092H1184L991 0H723L741 117Q699 39 648 3T526 -33Q459 -33 407 -4T313 88L223 -438H-63L205 1092Z"  />
<glyph unicode="&#xB6;" horiz-adv-x="1024" d="M983 1479V1368H870V0H719V1368H561V0H408V784Q241 790 141 885T41 1130Q41 1288 148 1383T432 1479H983Z"  />
<glyph unicode="&#xB7;" horiz-adv-x="592" d="M127 725Q127 795 176 845T295 895Q367 895 417 846T467 725Q467 655 417 605T295 555Q227 555 177 606T127 725Z"  />
<glyph unicode="&#xB8;" horiz-adv-x="1024" d="M287 -434V-315Q369 -337 433 -347T543 -358Q596 -358 623 -339T651 -283Q651 -241 617 -222T508 -203Q502 -203 488 -204T467 -205V0H557V-94H573Q693 -94 751 -141T809 -287Q809 -378 744 -427T559 -477Q505 -477 435 -466T287 -434Z"  />
<glyph unicode="&#xB9;" horiz-adv-x="782" d="M309 580V1290H143L174 1450H522V580H309Z"  />
<glyph unicode="&#xBA;" horiz-adv-x="840" d="M287 1137Q287 1057 324 1008T420 958Q478 958 514 1007T551 1137Q551 1217 514 1267T420 1317Q362 1317 325 1267T287 1137ZM47 1137Q47 1287 152 1385T420 1483Q581 1483 687 1385T793 1137Q793 986 687 889T420 791Q258 791 153 888T47 1137Z"  />
<glyph unicode="&#xBB;" horiz-adv-x="1024" d="M66 137L309 451L66 764H307L561 451L307 137H66ZM463 137L707 451L463 764H702L956 451L702 137H463Z"  />
<glyph unicode="&#xBC;" horiz-adv-x="1835" d="M1511 305V614L1286 305H1511ZM1511 0V160H1126V313L1489 811H1706V305H1800V160H1706V0H1511ZM406 -47L1276 1497H1430L559 -47H406ZM295 639V1303H135L166 1450H498V639H295Z"  />
<glyph unicode="&#xBD;" horiz-adv-x="1835" d="M1116 0V66L1448 418Q1509 481 1525 510T1542 569Q1542 613 1510 640T1425 668Q1378 668 1344 642T1298 567L1124 645Q1164 737 1245 787T1436 838Q1569 838 1658 765T1747 580Q1747 512 1707 441T1583 285L1462 166H1790L1759 0H1116ZM406 -47L1276 1497H1430L559 -47H406ZM295 639V1303H135L166 1450H498V639H295Z"  />
<glyph unicode="&#xBE;" horiz-adv-x="1837" d="M1511 305V614L1286 305H1511ZM1511 0V160H1126V313L1489 811H1706V305H1800V160H1706V0H1511ZM406 -47L1276 1497H1430L559 -47H406ZM127 872Q185 833 235 814T330 795Q387 795 421 820T455 889Q455 937 408 962T268 987H244V1126Q348 1130 399 1156T451 1235Q451 1270 425 1292T358 1315Q321 1315 279 1294T186 1229L70 1339Q135 1410 208 1444T365 1479Q489 1479 570 1412T651 1243Q651 1187 623 1142T543 1069Q603 1043 636 991T670 870Q670 756 579 684T340 612Q256 612 171 640T18 721L127 872Z"  />
<glyph unicode="&#xBF;" horiz-adv-x="1014" d="M819 1329Q819 1259 770 1209T651 1159Q579 1159 529 1208T479 1329Q479 1399 529 1448T651 1497Q720 1497 769 1447T819 1329ZM780 1032V662Q610 620 524 557T438 410Q438 341 490 302T633 262Q673 262 724 269T838 291L817 -2Q759 -13 707 -19T608 -25Q387 -25 256 85T125 379Q125 537 226 656T514 834L520 989L780 1032Z"  />
<glyph unicode="&#xC0;" horiz-adv-x="1366" d="M481 461H862L674 915L481 461ZM-61 0L678 1495H700L1423 0H1061L969 211H381L287 0H-61ZM831 1612H700L405 1958H627L831 1612Z"  />
<glyph unicode="&#xC1;" horiz-adv-x="1366" d="M481 461H862L674 915L481 461ZM-61 0L678 1495H700L1423 0H1061L969 211H381L287 0H-61ZM537 1612L741 1958H963L668 1612H537Z"  />
<glyph unicode="&#xC2;" horiz-adv-x="1366" d="M481 461H862L674 915L481 461ZM-61 0L678 1495H700L1423 0H1061L969 211H381L287 0H-61ZM387 1610L575 1958H793L981 1610H850L684 1821L516 1610H387Z"  />
<glyph unicode="&#xC3;" horiz-adv-x="1366" d="M481 461H862L674 915L481 461ZM-61 0L678 1495H700L1423 0H1061L969 211H381L287 0H-61ZM985 1894Q962 1777 914 1723T786 1669Q771 1669 754 1671T717 1679L633 1704Q613 1709 598 1711T569 1714Q536 1714 515 1698T483 1647H383Q403 1757 450 1811T575 1866Q594 1866 615 1862T660 1851L747 1827Q760 1824 772 1823T799 1821Q831 1821 853 1840T885 1894H985Z"  />
<glyph unicode="&#xC4;" horiz-adv-x="1366" d="M481 461H862L674 915L481 461ZM-61 0L678 1495H700L1423 0H1061L969 211H381L287 0H-61ZM745 1774Q745 1821 782 1857T868 1894Q917 1894 952 1859T987 1774Q987 1720 954 1687T868 1653Q817 1653 781 1688T745 1774ZM381 1774Q381 1822 417 1858T502 1894Q551 1894 587 1859T623 1774Q623 1720 589 1687T502 1653Q451 1653 416 1688T381 1774Z"  />
<glyph unicode="&#xC5;" horiz-adv-x="1366" d="M561 1722Q561 1670 596 1635T684 1599Q737 1599 773 1634T809 1722Q809 1774 773 1809T684 1845Q632 1845 597 1810T561 1722ZM481 461H862L674 915L481 461ZM-61 0L665 1474Q563 1484 499 1553T434 1722Q434 1826 507 1899T684 1972Q788 1972 861 1899T934 1722Q934 1625 871 1556T709 1475L1423 0H1061L969 211H381L287 0H-61Z"  />
<glyph unicode="&#xC6;" horiz-adv-x="1872" d="M535 530H883V1151H825L535 530ZM883 0V285H422L287 0H-61L639 1450H1761V1151H1204V889H1679V592H1204V305H1769V0H883Z"  />
<glyph unicode="&#xC7;" horiz-adv-x="1341" d="M1237 991Q1143 1088 1047 1135T844 1182Q660 1182 543 1055T426 729Q426 530 542 407T844 283Q954 283 1063 329T1282 467L1260 82Q1167 19 1057 -14T827 -47Q699 -47 582 -7T365 111Q225 221 151 379T76 725Q76 886 131 1027T291 1276Q397 1384 536 1441T829 1499Q951 1499 1062 1465T1274 1362L1237 991ZM555 -434V-315Q637 -337 701 -347T811 -358Q864 -358 891 -339T919 -283Q919 -241 885 -222T776 -203Q770 -203 756 -204T735 -205V0H825V-94H841Q961 -94 1019 -141T1077 -287Q1077 -378 1012 -427T827 -477Q773 -477 703 -466T555 -434Z"  />
<glyph unicode="&#xC8;" horiz-adv-x="1165" d="M166 0V1450H1059V1151H502V889H979V592H502V305H1067V0H166ZM761 1612H630L335 1958H557L761 1612Z"  />
<glyph unicode="&#xC9;" horiz-adv-x="1165" d="M166 0V1450H1059V1151H502V889H979V592H502V305H1067V0H166ZM467 1612L671 1958H893L598 1612H467Z"  />
<glyph unicode="&#xCA;" horiz-adv-x="1165" d="M166 0V1450H1059V1151H502V889H979V592H502V305H1067V0H166ZM317 1610L505 1958H723L911 1610H780L614 1821L446 1610H317Z"  />
<glyph unicode="&#xCB;" horiz-adv-x="1165" d="M166 0V1450H1059V1151H502V889H979V592H502V305H1067V0H166ZM675 1774Q675 1821 712 1857T798 1894Q847 1894 882 1859T917 1774Q917 1720 884 1687T798 1653Q747 1653 711 1688T675 1774ZM311 1774Q311 1822 347 1858T432 1894Q481 1894 517 1859T553 1774Q553 1720 519 1687T432 1653Q381 1653 346 1688T311 1774Z"  />
<glyph unicode="&#xCC;" horiz-adv-x="688" d="M170 0V1450H516V0H170ZM492 1612H361L66 1958H288L492 1612Z"  />
<glyph unicode="&#xCD;" horiz-adv-x="688" d="M170 0V1450H516V0H170ZM198 1612L402 1958H624L329 1612H198Z"  />
<glyph unicode="&#xCE;" horiz-adv-x="688" d="M170 0V1450H516V0H170ZM48 1610L236 1958H454L642 1610H511L345 1821L177 1610H48Z"  />
<glyph unicode="&#xCF;" horiz-adv-x="688" d="M170 0V1450H516V0H170ZM406 1774Q406 1821 443 1857T529 1894Q578 1894 613 1859T648 1774Q648 1720 615 1687T529 1653Q478 1653 442 1688T406 1774ZM42 1774Q42 1822 78 1858T163 1894Q212 1894 248 1859T284 1774Q284 1720 250 1687T163 1653Q112 1653 77 1688T42 1774Z"  />
<glyph unicode="&#xD0;" horiz-adv-x="1507" d="M516 311H598Q826 311 953 421T1081 725Q1081 919 953 1030T598 1141H516V864H815V666H516V311ZM180 0V666H0V864H180V1450H565Q971 1450 1201 1256T1432 725Q1432 523 1341 367T1073 109Q973 51 856 26T565 0H180Z"  />
<glyph unicode="&#xD1;" horiz-adv-x="1587" d="M166 0V1497H199L1102 651V1450H1421V-55H1391L485 791V0H166ZM1096 1894Q1073 1777 1025 1723T897 1669Q882 1669 865 1671T828 1679L744 1704Q724 1709 709 1711T680 1714Q647 1714 626 1698T594 1647H494Q514 1757 561 1811T686 1866Q705 1866 726 1862T771 1851L858 1827Q871 1824 883 1823T910 1821Q942 1821 964 1840T996 1894H1096Z"  />
<glyph unicode="&#xD2;" horiz-adv-x="1630" d="M432 725Q432 536 542 409T815 281Q978 281 1088 408T1198 725Q1198 916 1088 1043T815 1171Q653 1171 543 1044T432 725ZM76 725Q76 886 131 1026T295 1278Q397 1384 532 1440T815 1497Q963 1497 1098 1440T1339 1276Q1445 1169 1499 1029T1554 725Q1554 589 1516 469T1403 250Q1297 109 1143 31T815 -47Q668 -47 534 10T295 174Q187 285 132 424T76 725ZM962 1612H831L536 1958H758L962 1612Z"  />
<glyph unicode="&#xD3;" horiz-adv-x="1630" d="M432 725Q432 536 542 409T815 281Q978 281 1088 408T1198 725Q1198 916 1088 1043T815 1171Q653 1171 543 1044T432 725ZM76 725Q76 886 131 1026T295 1278Q397 1384 532 1440T815 1497Q963 1497 1098 1440T1339 1276Q1445 1169 1499 1029T1554 725Q1554 589 1516 469T1403 250Q1297 109 1143 31T815 -47Q668 -47 534 10T295 174Q187 285 132 424T76 725ZM668 1612L872 1958H1094L799 1612H668Z"  />
<glyph unicode="&#xD4;" horiz-adv-x="1630" d="M432 725Q432 536 542 409T815 281Q978 281 1088 408T1198 725Q1198 916 1088 1043T815 1171Q653 1171 543 1044T432 725ZM76 725Q76 886 131 1026T295 1278Q397 1384 532 1440T815 1497Q963 1497 1098 1440T1339 1276Q1445 1169 1499 1029T1554 725Q1554 589 1516 469T1403 250Q1297 109 1143 31T815 -47Q668 -47 534 10T295 174Q187 285 132 424T76 725ZM518 1610L706 1958H924L1112 1610H981L815 1821L647 1610H518Z"  />
<glyph unicode="&#xD5;" horiz-adv-x="1630" d="M432 725Q432 536 542 409T815 281Q978 281 1088 408T1198 725Q1198 916 1088 1043T815 1171Q653 1171 543 1044T432 725ZM76 725Q76 886 131 1026T295 1278Q397 1384 532 1440T815 1497Q963 1497 1098 1440T1339 1276Q1445 1169 1499 1029T1554 725Q1554 589 1516 469T1403 250Q1297 109 1143 31T815 -47Q668 -47 534 10T295 174Q187 285 132 424T76 725ZM1116 1894Q1093 1777 1045 1723T917 1669Q902 1669 885 1671T848 1679L764 1704Q744 1709 729 1711T700 1714Q667 1714 646 1698T614 1647H514Q534 1757 581 1811T706 1866Q725 1866 746 1862T791 1851L878 1827Q891 1824 903 1823T930 1821Q962 1821 984 1840T1016 1894H1116Z"  />
<glyph unicode="&#xD6;" horiz-adv-x="1630" d="M432 725Q432 536 542 409T815 281Q978 281 1088 408T1198 725Q1198 916 1088 1043T815 1171Q653 1171 543 1044T432 725ZM76 725Q76 886 131 1026T295 1278Q397 1384 532 1440T815 1497Q963 1497 1098 1440T1339 1276Q1445 1169 1499 1029T1554 725Q1554 589 1516 469T1403 250Q1297 109 1143 31T815 -47Q668 -47 534 10T295 174Q187 285 132 424T76 725ZM876 1774Q876 1821 913 1857T999 1894Q1048 1894 1083 1859T1118 1774Q1118 1720 1085 1687T999 1653Q948 1653 912 1688T876 1774ZM512 1774Q512 1822 548 1858T633 1894Q682 1894 718 1859T754 1774Q754 1720 720 1687T633 1653Q582 1653 547 1688T512 1774Z"  />
<glyph unicode="&#xD7;" horiz-adv-x="1706" d="M416 1202L866 752L1317 1202L1458 1063L1008 610L1458 160L1317 20L866 471L416 20L276 160L727 610L276 1063L416 1202Z"  />
<glyph unicode="&#xD8;" horiz-adv-x="1630" d="M483 494L1020 1110Q966 1144 918 1160T819 1176Q655 1176 542 1049T428 737Q428 664 441 605T483 494ZM240 -57H2L248 227Q160 329 116 452T72 717Q72 857 116 986T244 1221Q350 1353 499 1426T813 1499Q930 1499 1035 1466T1239 1362L1343 1479H1583L1374 1237Q1463 1134 1509 1002T1556 719Q1556 570 1504 434T1352 188Q1247 75 1110 14T821 -47Q697 -47 588 -11T379 98L240 -57ZM1143 975L596 350Q652 311 704 293T813 274Q976 274 1090 402T1204 715Q1204 784 1189 848T1143 975Z"  />
<glyph unicode="&#xD9;" horiz-adv-x="1522" d="M494 1450V653Q494 461 564 366T778 270Q916 270 988 359T1061 618V1450H1370V618Q1370 304 1209 129T762 -47Q473 -47 313 127T152 616V1450H494ZM909 1612H778L483 1958H705L909 1612Z"  />
<glyph unicode="&#xDA;" horiz-adv-x="1522" d="M494 1450V653Q494 461 564 366T778 270Q916 270 988 359T1061 618V1450H1370V618Q1370 304 1209 129T762 -47Q473 -47 313 127T152 616V1450H494ZM615 1612L819 1958H1041L746 1612H615Z"  />
<glyph unicode="&#xDB;" horiz-adv-x="1522" d="M494 1450V653Q494 461 564 366T778 270Q916 270 988 359T1061 618V1450H1370V618Q1370 304 1209 129T762 -47Q473 -47 313 127T152 616V1450H494ZM465 1610L653 1958H871L1059 1610H928L762 1821L594 1610H465Z"  />
<glyph unicode="&#xDC;" horiz-adv-x="1522" d="M494 1450V653Q494 461 564 366T778 270Q916 270 988 359T1061 618V1450H1370V618Q1370 304 1209 129T762 -47Q473 -47 313 127T152 616V1450H494ZM823 1774Q823 1821 860 1857T946 1894Q995 1894 1030 1859T1065 1774Q1065 1720 1032 1687T946 1653Q895 1653 859 1688T823 1774ZM459 1774Q459 1822 495 1858T580 1894Q629 1894 665 1859T701 1774Q701 1720 667 1687T580 1653Q529 1653 494 1688T459 1774Z"  />
<glyph unicode="&#xDD;" horiz-adv-x="1270" d="M446 0V688L-72 1450H346L649 991L983 1450H1350L791 702V0H446ZM488 1612L692 1958H914L619 1612H488Z"  />
<glyph unicode="&#xDE;" horiz-adv-x="1223" d="M512 920V532H575Q706 532 775 583T844 729Q844 828 776 874T559 920H512ZM166 1450H512V1186H575Q852 1186 1006 1066T1161 731Q1161 520 1003 392T582 264Q554 264 540 264T512 266V0H166V1450Z"  />
<glyph unicode="&#xDF;" horiz-adv-x="1157" d="M541 692V885Q629 885 670 930T711 1073Q711 1159 676 1206T575 1253Q496 1253 464 1197T432 961V0H119V811Q119 975 131 1076T172 1235Q229 1352 332 1411T584 1470Q771 1470 883 1370T995 1102Q995 1008 953 938T811 801Q947 752 1011 654T1075 395Q1075 188 981 72T719 -45Q675 -45 627 -34T520 0V252Q554 230 583 220T637 209Q700 209 733 263T766 422Q766 550 709 621T549 692H541Z"  />
<glyph unicode="&#xE0;" horiz-adv-x="1133" d="M702 672Q674 688 649 695T598 702Q509 702 448 628T387 440Q387 334 440 264T571 193Q602 193 634 209T702 260V672ZM1016 901V338Q1016 232 1020 160T1032 37L741 -43L713 43Q654 -1 598 -22T479 -43Q305 -43 187 96T68 442Q68 660 201 802T537 944Q584 944 635 931T748 891L1016 901ZM735 1055H604L309 1401H531L735 1055Z"  />
<glyph unicode="&#xE1;" horiz-adv-x="1133" d="M702 672Q674 688 649 695T598 702Q509 702 448 628T387 440Q387 334 440 264T571 193Q602 193 634 209T702 260V672ZM1016 901V338Q1016 232 1020 160T1032 37L741 -43L713 43Q654 -1 598 -22T479 -43Q305 -43 187 96T68 442Q68 660 201 802T537 944Q584 944 635 931T748 891L1016 901ZM441 1055L645 1401H867L572 1055H441Z"  />
<glyph unicode="&#xE2;" horiz-adv-x="1133" d="M702 672Q674 688 649 695T598 702Q509 702 448 628T387 440Q387 334 440 264T571 193Q602 193 634 209T702 260V672ZM1016 901V338Q1016 232 1020 160T1032 37L741 -43L713 43Q654 -1 598 -22T479 -43Q305 -43 187 96T68 442Q68 660 201 802T537 944Q584 944 635 931T748 891L1016 901ZM291 1053L479 1401H697L885 1053H754L588 1264L420 1053H291Z"  />
<glyph unicode="&#xE3;" horiz-adv-x="1133" d="M702 672Q674 688 649 695T598 702Q509 702 448 628T387 440Q387 334 440 264T571 193Q602 193 634 209T702 260V672ZM1016 901V338Q1016 232 1020 160T1032 37L741 -43L713 43Q654 -1 598 -22T479 -43Q305 -43 187 96T68 442Q68 660 201 802T537 944Q584 944 635 931T748 891L1016 901ZM889 1337Q866 1220 818 1166T690 1112Q675 1112 658 1114T621 1122L537 1147Q517 1152 502 1154T473 1157Q440 1157 419 1141T387 1090H287Q307 1200 354 1254T479 1309Q498 1309 519 1305T564 1294L651 1270Q664 1267 676 1266T703 1264Q735 1264 757 1283T789 1337H889Z"  />
<glyph unicode="&#xE4;" horiz-adv-x="1133" d="M702 672Q674 688 649 695T598 702Q509 702 448 628T387 440Q387 334 440 264T571 193Q602 193 634 209T702 260V672ZM1016 901V338Q1016 232 1020 160T1032 37L741 -43L713 43Q654 -1 598 -22T479 -43Q305 -43 187 96T68 442Q68 660 201 802T537 944Q584 944 635 931T748 891L1016 901ZM649 1217Q649 1264 686 1300T772 1337Q821 1337 856 1302T891 1217Q891 1163 858 1130T772 1096Q721 1096 685 1131T649 1217ZM285 1217Q285 1265 321 1301T406 1337Q455 1337 491 1302T527 1217Q527 1163 493 1130T406 1096Q355 1096 320 1131T285 1217Z"  />
<glyph unicode="&#xE5;" horiz-adv-x="1133" d="M487 1268Q487 1214 524 1177T614 1139Q667 1139 704 1176T741 1268Q741 1321 705 1358T614 1395Q561 1395 524 1358T487 1268ZM356 1268Q356 1375 431 1450T614 1526Q722 1526 797 1451T872 1268Q872 1159 798 1085T614 1010Q506 1010 431 1084T356 1268ZM702 672Q674 688 649 695T598 702Q509 702 448 628T387 440Q387 334 440 264T571 193Q602 193 634 209T702 260V672ZM1016 901V338Q1016 232 1020 160T1032 37L741 -43L713 43Q654 -1 598 -22T479 -43Q305 -43 187 96T68 442Q68 660 201 802T537 944Q584 944 635 931T748 891L1016 901Z"  />
<glyph unicode="&#xE6;" horiz-adv-x="1616" d="M918 535L1311 547V561Q1311 631 1260 677T1133 723Q1048 723 991 674T918 535ZM633 215V385L576 383Q456 378 399 348T342 258Q342 210 375 182T463 154Q497 154 538 168T633 215ZM768 78Q677 17 578 -13T371 -43Q220 -43 133 25T45 209Q45 357 173 435T553 520L633 522V573Q633 645 589 678T451 711Q375 711 208 657Q188 650 178 648L180 870Q270 908 353 926T520 944Q617 944 690 919T825 838Q901 891 978 917T1139 944Q1323 944 1441 834T1559 549Q1558 521 1555 463L1554 457L1528 416L913 399Q920 308 988 252T1161 195Q1235 195 1326 227T1518 322L1483 45Q1391 2 1302 -19T1120 -41Q1015 -41 929 -12T768 78Z"  />
<glyph unicode="&#xE7;" horiz-adv-x="999" d="M909 51Q826 4 746 -18T580 -41Q355 -41 211 94T66 436Q66 651 221 796T612 942Q698 942 780 923T938 864L903 584Q829 629 761 652T633 676Q527 676 457 612T387 451Q387 349 452 287T623 225Q689 225 764 253T938 346L909 51ZM322 -434V-315Q404 -337 468 -347T578 -358Q631 -358 658 -339T686 -283Q686 -241 652 -222T543 -203Q537 -203 523 -204T502 -205V0H592V-94H608Q728 -94 786 -141T844 -287Q844 -378 779 -427T594 -477Q540 -477 470 -466T322 -434Z"  />
<glyph unicode="&#xE8;" horiz-adv-x="1063" d="M365 535L756 547V561Q756 632 706 677T580 723Q495 723 438 674T365 535ZM963 322L928 45Q836 1 747 -20T567 -41Q342 -41 204 88T66 426Q66 643 217 792T584 942Q769 942 887 833T1006 549Q1006 522 1002 463L1001 457L973 416L358 399Q365 308 434 252T608 195Q682 195 772 227T963 322ZM700 1055H569L274 1401H496L700 1055Z"  />
<glyph unicode="&#xE9;" horiz-adv-x="1063" d="M365 535L756 547V561Q756 632 706 677T580 723Q495 723 438 674T365 535ZM963 322L928 45Q836 1 747 -20T567 -41Q342 -41 204 88T66 426Q66 643 217 792T584 942Q769 942 887 833T1006 549Q1006 522 1002 463L1001 457L973 416L358 399Q365 308 434 252T608 195Q682 195 772 227T963 322ZM406 1055L610 1401H832L537 1055H406Z"  />
<glyph unicode="&#xEA;" horiz-adv-x="1063" d="M365 535L756 547V561Q756 632 706 677T580 723Q495 723 438 674T365 535ZM963 322L928 45Q836 1 747 -20T567 -41Q342 -41 204 88T66 426Q66 643 217 792T584 942Q769 942 887 833T1006 549Q1006 522 1002 463L1001 457L973 416L358 399Q365 308 434 252T608 195Q682 195 772 227T963 322ZM256 1053L444 1401H662L850 1053H719L553 1264L385 1053H256Z"  />
<glyph unicode="&#xEB;" horiz-adv-x="1063" d="M365 535L756 547V561Q756 632 706 677T580 723Q495 723 438 674T365 535ZM963 322L928 45Q836 1 747 -20T567 -41Q342 -41 204 88T66 426Q66 643 217 792T584 942Q769 942 887 833T1006 549Q1006 522 1002 463L1001 457L973 416L358 399Q365 308 434 252T608 195Q682 195 772 227T963 322ZM614 1217Q614 1264 651 1300T737 1337Q786 1337 821 1302T856 1217Q856 1163 823 1130T737 1096Q686 1096 650 1131T614 1217ZM250 1217Q250 1265 286 1301T371 1337Q420 1337 456 1302T492 1217Q492 1163 458 1130T371 1096Q320 1096 285 1131T250 1217Z"  />
<glyph unicode="&#xEC;" horiz-adv-x="545" d="M432 0H115V901L432 944V0ZM431 1055H300L5 1401H227L431 1055Z"  />
<glyph unicode="&#xED;" horiz-adv-x="545" d="M432 0H115V901L432 944V0ZM137 1055L341 1401H563L268 1055H137Z"  />
<glyph unicode="&#xEE;" horiz-adv-x="545" d="M432 0H115V901L432 944V0ZM-13 1053L175 1401H393L581 1053H450L284 1264L116 1053H-13Z"  />
<glyph unicode="&#xEF;" horiz-adv-x="545" d="M432 0H115V901L432 944V0ZM345 1217Q345 1264 382 1300T468 1337Q517 1337 552 1302T587 1217Q587 1163 554 1130T468 1096Q417 1096 381 1131T345 1217ZM-19 1217Q-19 1265 17 1301T102 1337Q151 1337 187 1302T223 1217Q223 1163 189 1130T102 1096Q51 1096 16 1131T-19 1217Z"  />
<glyph unicode="&#xF0;" horiz-adv-x="1118" d="M602 928Q575 969 545 1010T477 1096L184 950L125 1069L389 1198Q352 1240 323 1273T262 1339L422 1479Q476 1438 523 1398T614 1315L866 1448L928 1327L715 1217Q890 1032 974 851T1059 479Q1059 241 922 99T559 -43Q345 -43 204 95T63 446Q63 656 200 793T545 930Q569 930 580 930T602 928ZM559 707Q483 707 433 637T383 455Q383 337 432 266T559 195Q636 195 685 266T735 451Q735 564 686 635T559 707Z"  />
<glyph unicode="&#xF1;" horiz-adv-x="1139" d="M436 0H123V901H412V750Q484 839 565 882T741 926Q884 926 958 844T1032 604V0H721V516Q721 587 692 623T606 659Q524 659 480 604T436 444V0ZM881 1337Q858 1220 810 1166T682 1112Q667 1112 650 1114T613 1122L529 1147Q509 1152 494 1154T465 1157Q432 1157 411 1141T379 1090H279Q299 1200 346 1254T471 1309Q490 1309 511 1305T556 1294L643 1270Q656 1267 668 1266T695 1264Q727 1264 749 1283T781 1337H881Z"  />
<glyph unicode="&#xF2;" horiz-adv-x="1118" d="M383 451Q383 336 432 266T559 195Q636 195 685 266T735 451Q735 564 686 635T559 707Q482 707 433 636T383 451ZM63 451Q63 666 203 805T559 944Q775 944 916 805T1057 451Q1057 236 916 97T559 -43Q345 -43 204 96T63 451ZM706 1055H575L280 1401H502L706 1055Z"  />
<glyph unicode="&#xF3;" horiz-adv-x="1118" d="M383 451Q383 336 432 266T559 195Q636 195 685 266T735 451Q735 564 686 635T559 707Q482 707 433 636T383 451ZM63 451Q63 666 203 805T559 944Q775 944 916 805T1057 451Q1057 236 916 97T559 -43Q345 -43 204 96T63 451ZM412 1055L616 1401H838L543 1055H412Z"  />
<glyph unicode="&#xF4;" horiz-adv-x="1118" d="M383 451Q383 336 432 266T559 195Q636 195 685 266T735 451Q735 564 686 635T559 707Q482 707 433 636T383 451ZM63 451Q63 666 203 805T559 944Q775 944 916 805T1057 451Q1057 236 916 97T559 -43Q345 -43 204 96T63 451ZM262 1053L450 1401H668L856 1053H725L559 1264L391 1053H262Z"  />
<glyph unicode="&#xF5;" horiz-adv-x="1118" d="M383 451Q383 336 432 266T559 195Q636 195 685 266T735 451Q735 564 686 635T559 707Q482 707 433 636T383 451ZM63 451Q63 666 203 805T559 944Q775 944 916 805T1057 451Q1057 236 916 97T559 -43Q345 -43 204 96T63 451ZM860 1337Q837 1220 789 1166T661 1112Q646 1112 629 1114T592 1122L508 1147Q488 1152 473 1154T444 1157Q411 1157 390 1141T358 1090H258Q278 1200 325 1254T450 1309Q469 1309 490 1305T535 1294L622 1270Q635 1267 647 1266T674 1264Q706 1264 728 1283T760 1337H860Z"  />
<glyph unicode="&#xF6;" horiz-adv-x="1118" d="M383 451Q383 336 432 266T559 195Q636 195 685 266T735 451Q735 564 686 635T559 707Q482 707 433 636T383 451ZM63 451Q63 666 203 805T559 944Q775 944 916 805T1057 451Q1057 236 916 97T559 -43Q345 -43 204 96T63 451ZM620 1217Q620 1264 657 1300T743 1337Q792 1337 827 1302T862 1217Q862 1163 829 1130T743 1096Q692 1096 656 1131T620 1217ZM256 1217Q256 1265 292 1301T377 1337Q426 1337 462 1302T498 1217Q498 1163 464 1130T377 1096Q326 1096 291 1131T256 1217Z"  />
<glyph unicode="&#xF7;" horiz-adv-x="1706" d="M854 369Q916 369 961 324T1006 217Q1006 156 961 112T854 68Q791 68 747 111T702 217Q702 280 746 324T854 369ZM254 711H1452V512H254V711ZM854 1155Q916 1155 961 1111T1006 1004Q1006 941 962 897T854 852Q791 852 747 896T702 1004Q702 1067 746 1111T854 1155Z"  />
<glyph unicode="&#xF8;" horiz-adv-x="1118" d="M745 582L432 233Q466 206 497 193T561 180Q649 180 707 253T766 436Q766 467 761 502T745 582ZM373 330L680 676Q653 699 624 710T561 721Q470 721 413 648T356 457Q356 431 360 400T373 330ZM285 33L188 -78H-2L176 127Q118 195 91 273T63 451Q63 665 203 803T559 942Q637 942 702 925T827 870L915 969H1106L940 778Q1000 707 1028 628T1057 451Q1057 236 916 98T559 -41Q481 -41 415 -23T285 33Z"  />
<glyph unicode="&#xF9;" horiz-adv-x="1130" d="M707 901H1018V0L729 -43V133Q656 43 576 0T401 -43Q258 -43 184 39T109 279V901H422V367Q422 296 451 260T537 223Q619 223 663 278T707 438V901ZM712 1055H581L286 1401H508L712 1055Z"  />
<glyph unicode="&#xFA;" horiz-adv-x="1130" d="M707 901H1018V0L729 -43V133Q656 43 576 0T401 -43Q258 -43 184 39T109 279V901H422V367Q422 296 451 260T537 223Q619 223 663 278T707 438V901ZM418 1055L622 1401H844L549 1055H418Z"  />
<glyph unicode="&#xFB;" horiz-adv-x="1130" d="M707 901H1018V0L729 -43V133Q656 43 576 0T401 -43Q258 -43 184 39T109 279V901H422V367Q422 296 451 260T537 223Q619 223 663 278T707 438V901ZM268 1053L456 1401H674L862 1053H731L565 1264L397 1053H268Z"  />
<glyph unicode="&#xFC;" horiz-adv-x="1130" d="M707 901H1018V0L729 -43V133Q656 43 576 0T401 -43Q258 -43 184 39T109 279V901H422V367Q422 296 451 260T537 223Q619 223 663 278T707 438V901ZM626 1217Q626 1264 663 1300T749 1337Q798 1337 833 1302T868 1217Q868 1163 835 1130T749 1096Q698 1096 662 1131T626 1217ZM262 1217Q262 1265 298 1301T383 1337Q432 1337 468 1302T504 1217Q504 1163 470 1130T383 1096Q332 1096 297 1131T262 1217Z"  />
<glyph unicode="&#xFD;" horiz-adv-x="920" d="M324 0L0 901H338L483 436L662 901H940L375 -436H37Q113 -364 177 -274T289 -80L324 0ZM315 1055L519 1401H741L446 1055H315Z"  />
<glyph unicode="&#xFE;" horiz-adv-x="1133" d="M123 1427L436 1470V901Q483 919 529 927T623 936Q818 936 944 801T1071 453Q1071 231 935 95T578 -41Q546 -41 511 -38T436 -27V-381L123 -434V1427ZM436 678V207Q469 198 493 194T537 190Q628 190 689 265T750 455Q750 562 694 632T557 702Q532 702 504 697T436 678Z"  />
<glyph unicode="&#xFF;" horiz-adv-x="920" d="M324 0L0 901H338L483 436L662 901H940L375 -436H37Q113 -364 177 -274T289 -80L324 0ZM523 1217Q523 1264 560 1300T646 1337Q695 1337 730 1302T765 1217Q765 1163 732 1130T646 1096Q595 1096 559 1131T523 1217ZM159 1217Q159 1265 195 1301T280 1337Q329 1337 365 1302T401 1217Q401 1163 367 1130T280 1096Q229 1096 194 1131T159 1217Z"  />
<glyph unicode="&#x131;" horiz-adv-x="545" d="M432 0H115V901L432 944V0Z"  />
<glyph unicode="&#x152;" horiz-adv-x="1896" d="M922 0Q757 0 644 20T442 86Q269 173 173 341T76 725Q76 921 156 1079T385 1335Q478 1396 598 1423T922 1450H1790V1151H1233V889H1708V592H1233V305H1798V0H922ZM913 305V1145Q903 1145 883 1148T854 1151Q656 1151 543 1038T430 727Q430 532 544 419T856 305H895H913Z"  />
<glyph unicode="&#x153;" horiz-adv-x="1720" d="M903 815Q979 879 1063 910T1243 942Q1428 942 1545 833T1663 549Q1663 522 1659 462V457L1632 416L1018 399Q1024 308 1092 252T1266 195Q1340 195 1431 227T1622 322L1587 45Q1496 2 1406 -19T1225 -41Q1117 -41 1035 -14T885 72Q810 14 731 -13T559 -41Q345 -41 204 97T63 451Q63 665 204 803T559 942Q663 942 746 911T903 815ZM383 451Q383 336 432 266T559 195Q636 195 685 266T735 451Q735 564 686 635T559 707Q482 707 433 636T383 451ZM1022 535L1415 547V561Q1415 631 1364 677T1237 723Q1152 723 1096 674T1022 535Z"  />
<glyph unicode="&#x160;" horiz-adv-x="1128" d="M100 410Q234 328 327 295T510 262Q600 262 654 301T709 403Q709 492 515 603Q484 621 467 631L369 686Q226 767 157 869T88 1100Q88 1275 220 1387T561 1499Q638 1499 728 1481T928 1425V1085Q823 1151 729 1187T569 1223Q496 1223 454 1192T412 1106Q412 1068 437 1035T512 975L682 881Q895 763 968 663T1042 426Q1042 214 898 84T514 -47Q433 -47 338 -30T129 23L100 410ZM268 1958H397L565 1749L731 1958H862L674 1610H456L268 1958Z"  />
<glyph unicode="&#x161;" horiz-adv-x="868" d="M119 41V289Q238 213 304 187T426 160Q475 160 505 181T535 238Q535 268 514 288T442 326L326 367Q212 406 153 476T94 643Q94 779 189 861T442 944Q515 944 596 924T778 860L739 641Q679 692 608 721T475 750Q429 750 400 729T371 674Q371 646 387 630T461 594L569 555Q696 510 750 446T805 279Q805 130 707 44T440 -43Q358 -43 279 -23T119 41ZM138 1401H267L435 1192L601 1401H732L544 1053H326L138 1401Z"  />
<glyph unicode="&#x178;" horiz-adv-x="1270" d="M446 0V688L-72 1450H346L649 991L983 1450H1350L791 702V0H446ZM696 1774Q696 1821 733 1857T819 1894Q868 1894 903 1859T938 1774Q938 1720 905 1687T819 1653Q768 1653 732 1688T696 1774ZM332 1774Q332 1822 368 1858T453 1894Q502 1894 538 1859T574 1774Q574 1720 540 1687T453 1653Q402 1653 367 1688T332 1774Z"  />
<glyph unicode="&#x17D;" horiz-adv-x="1370" d="M35 0L756 1147H109L164 1450H1315L596 307H1315L1260 0H35ZM389 1958H518L686 1749L852 1958H983L795 1610H577L389 1958Z"  />
<glyph unicode="&#x17E;" horiz-adv-x="928" d="M-4 0L399 664H51L106 901H897L494 238H885L848 0H-4ZM169 1401H298L466 1192L632 1401H763L575 1053H357L169 1401Z"  />
<glyph unicode="&#x192;" horiz-adv-x="1186" d="M723 678L659 147Q627 -119 507 -255T184 -391Q149 -391 108 -386T18 -371L70 -86Q89 -90 111 -92T160 -94Q243 -94 292 -24T356 186L412 678H129V905H438Q477 1202 594 1349T907 1497Q965 1497 1016 1488T1114 1460L1069 1212Q1033 1221 1006 1225T956 1229Q863 1229 813 1151T750 905H1024V678H723Z"  />
<glyph unicode="&#x2C6;" horiz-adv-x="1024" d="M215 1053L403 1401H621L809 1053H678L512 1264L344 1053H215Z"  />
<glyph unicode="&#x2C7;" horiz-adv-x="1024" d="M215 1401H344L512 1192L678 1401H809L621 1053H403L215 1401Z"  />
<glyph unicode="&#x2DC;" horiz-adv-x="1024" d="M813 1337Q790 1220 742 1166T614 1112Q599 1112 582 1114T545 1122L461 1147Q441 1152 426 1154T397 1157Q364 1157 343 1141T311 1090H211Q231 1200 278 1254T403 1309Q422 1309 443 1305T488 1294L575 1270Q588 1267 600 1266T627 1264Q659 1264 681 1283T713 1337H813Z"  />
<glyph unicode="&#x2013;" horiz-adv-x="1024" d="M0 346V555H1024V346H0Z"  />
<glyph unicode="&#x2014;" horiz-adv-x="2048" d="M0 555H2048V346H0V555Z"  />
<glyph unicode="&#x2018;" horiz-adv-x="592" d="M535 1450L342 891H57L283 1450H535Z"  />
<glyph unicode="&#x2019;" horiz-adv-x="592" d="M535 1450L342 891H57L283 1450H535Z"  />
<glyph unicode="&#x201A;" horiz-adv-x="592" d="M473 252L281 -309H-4L221 252H473Z"  />
<glyph unicode="&#x201C;" horiz-adv-x="995" d="M930 1450L737 891H455L678 1450H930ZM526 1450L336 891H51L274 1450H526Z"  />
<glyph unicode="&#x201D;" horiz-adv-x="995" d="M930 1450L737 891H455L678 1450H930ZM526 1450L336 891H51L274 1450H526Z"  />
<glyph unicode="&#x201E;" horiz-adv-x="995" d="M879 252L686 -309H403L627 252H879ZM475 252L285 -309H0L223 252H475Z"  />
<glyph unicode="&#x2020;" horiz-adv-x="1024" d="M633 1450L553 1024L893 1102V862L551 948Q564 863 585 775T637 592Q606 463 585 240T555 -268H469Q462 10 441 234T387 592Q418 686 439 774T473 948L131 862V1102L471 1024L391 1450H633Z"  />
<glyph unicode="&#x2021;" horiz-adv-x="1024" d="M387 598Q415 672 436 759T473 948L131 862V1102L471 1024L391 1450H633L553 1024L893 1102V862L551 948Q567 848 588 760T637 596Q609 522 588 435T551 246L893 334V94L553 172L633 -256H391L471 172L131 94V334L473 246Q457 346 436 434T387 598Z"  />
<glyph unicode="&#x2022;" horiz-adv-x="1208" d="M307 762Q307 885 394 971T604 1057Q726 1057 812 971T899 762Q899 640 812 553T602 465Q479 465 393 552T307 762Z"  />
<glyph unicode="&#x2026;" horiz-adv-x="2048" d="M172 145Q172 216 221 265T340 315Q412 315 462 266T512 145Q512 75 462 25T340 -25Q272 -25 222 26T172 145ZM854 145Q854 216 903 265T1022 315Q1094 315 1144 266T1194 145Q1194 75 1144 25T1022 -25Q954 -25 904 26T854 145ZM1538 145Q1538 216 1587 265T1706 315Q1778 315 1828 266T1878 145Q1878 75 1828 25T1706 -25Q1638 -25 1588 26T1538 145Z"  />
<glyph unicode="&#x2030;" horiz-adv-x="2437" d="M1872 319Q1872 254 1919 206T2030 158Q2094 158 2141 205T2189 319Q2189 386 2142 434T2030 483Q1965 483 1919 435T1872 319ZM1661 322Q1661 474 1769 582T2030 690Q2183 690 2290 583T2398 322Q2398 169 2290 61T2030 -47Q1878 -47 1770 61T1661 322ZM1184 1497H1337L414 -47H258L1184 1497ZM1032 319Q1032 254 1079 206T1190 158Q1254 158 1302 205T1350 319Q1350 386 1303 434T1190 483Q1126 483 1079 435T1032 319ZM821 322Q821 474 929 582T1190 690Q1343 690 1451 583T1559 322Q1559 169 1451 61T1190 -47Q1038 -47 930 61T821 322ZM248 1128Q248 1063 295 1015T406 967Q470 967 516 1014T563 1128Q563 1196 517 1244T406 1292Q341 1292 295 1244T248 1128ZM39 1128Q39 1282 146 1389T406 1497Q559 1497 666 1390T774 1128Q774 976 666 869T406 762Q254 762 147 869T39 1128Z"  />
<glyph unicode="&#x2039;" horiz-adv-x="627" d="M559 764L315 451L559 137H319L66 451L319 764H559Z"  />
<glyph unicode="&#x203A;" horiz-adv-x="627" d="M66 137L309 451L66 764H305L559 451L305 137H66Z"  />
<glyph unicode="&#x2122;" horiz-adv-x="1706" d="M803 1462H999L1126 1130L1249 1462H1446V915H1311V1325L1157 915H1096L938 1325V915H803V1462ZM207 1462H692V1350H524V915H375V1350H207V1462Z"  />

</font>
</defs>
</svg>
